<?xml version="1.0" encoding="UTF-8" standalone="no"?>
<svg
   xmlns:dc="http://purl.org/dc/elements/1.1/"
   xmlns:cc="http://creativecommons.org/ns#"
   xmlns:rdf="http://www.w3.org/1999/02/22-rdf-syntax-ns#"
   xmlns:svg="http://www.w3.org/2000/svg"
   xmlns="http://www.w3.org/2000/svg"
   xmlns:sodipodi="http://sodipodi.sourceforge.net/DTD/sodipodi-0.dtd"
   xmlns:inkscape="http://www.inkscape.org/namespaces/inkscape"
   width="100"
   height="130"
   viewBox="0 0 100 130"
   version="1.1"
   id="svg8"
   inkscape:version="1.0.1 (3bc2e813f5, 2020-09-07)"
   sodipodi:docname="cardFlip.svg">
  <defs
     id="defs2" />
  <sodipodi:namedview
     id="base"
     pagecolor="#000000"
     bordercolor="#666666"
     borderopacity="1.0"
     inkscape:pageopacity="0"
     inkscape:pageshadow="2"
     inkscape:zoom="1.2925197"
     inkscape:cx="-79.686263"
     inkscape:cy="15.267841"
     inkscape:document-units="px"
     inkscape:current-layer="layer1"
     inkscape:document-rotation="0"
     showgrid="false"
     units="px"
     inkscape:window-width="1264"
     inkscape:window-height="681"
     inkscape:window-x="95"
     inkscape:window-y="27"
     inkscape:window-maximized="0" />
  <metadata
     id="metadata5">
    <rdf:RDF>
      <cc:Work
         rdf:about="">
        <dc:format>image/svg+xml</dc:format>
        <dc:type
           rdf:resource="http://purl.org/dc/dcmitype/StillImage" />
        <dc:title></dc:title>
      </cc:Work>
    </rdf:RDF>
  </metadata>
  <g
     inkscape:label="Layer 1"
     inkscape:groupmode="layer"
     id="layer1">
    <rect
       style="fill:none;fill-opacity:1;stroke:#ffffff;stroke-width:0.672374;stroke-miterlimit:4;stroke-dasharray:none;stroke-opacity:1;paint-order:markers fill stroke"
       id="rect10"
       width="95.110588"
       height="126.01762"
       x="2.3940742"
       y="2.0495145"
       rx="0"
       ry="3.9878995" />
    <rect
       style="fill:none;fill-opacity:1;stroke:#ffffff;stroke-width:0.545159;stroke-miterlimit:4;stroke-dasharray:none;stroke-opacity:1;paint-order:markers fill stroke"
       id="rect10-8"
       width="80.414482"
       height="110.75637"
       x="10.006043"
       y="9.9979811"
       rx="0"
       ry="3.5049491" />
    <path
       sodipodi:type="star"
       style="fill:#ffd42a;fill-opacity:1;stroke:#ffe579;stroke-width:0.957;stroke-miterlimit:4;stroke-dasharray:none;stroke-opacity:1;paint-order:markers fill stroke"
       id="path850"
       sodipodi:sides="4"
       sodipodi:cx="5.9259286"
       sodipodi:cy="92.445068"
       sodipodi:r1="9.2841911"
       sodipodi:r2="4.6420956"
       sodipodi:arg1="1.5707963"
       sodipodi:arg2="2.3561945"
       inkscape:flatsided="false"
       inkscape:rounded="0.03"
       inkscape:randomized="0"
       d="m 5.9259288,101.72926 c -0.2052213,0 -3.1373441,-5.856621 -3.2824575,-6.001734 -0.1451134,-0.145114 -6.0017338,-3.077236 -6.0017338,-3.282457 0,-0.205222 5.8566205,-3.137345 6.0017339,-3.282458 0.1451134,-0.145113 3.0772356,-6.001734 3.2824569,-6.001734 0.2052214,0 3.1373442,5.856621 3.2824576,6.001734 0.1451134,0.145114 6.0017341,3.077236 6.0017341,3.282457 0,0.205221 -5.8566208,3.137344 -6.0017342,3.282458 -0.1451134,0.145113 -3.0772356,6.001734 -3.282457,6.001734 z"
       transform="matrix(0.32256166,0,0,0.55826393,4.0996844,62.172295)" />
    <path
       sodipodi:type="star"
       style="fill:#ffd42a;fill-opacity:1;stroke:#ffe579;stroke-width:0.957;stroke-miterlimit:4;stroke-dasharray:none;stroke-opacity:1;paint-order:markers fill stroke"
       id="path850-1"
       sodipodi:sides="4"
       sodipodi:cx="5.9259286"
       sodipodi:cy="92.445068"
       sodipodi:r1="9.2841911"
       sodipodi:r2="4.6420956"
       sodipodi:arg1="1.5707963"
       sodipodi:arg2="2.3561945"
       inkscape:flatsided="false"
       inkscape:rounded="0.03"
       inkscape:randomized="0"
       d="m 5.9259288,101.72926 c -0.2052213,0 -3.1373441,-5.856621 -3.2824575,-6.001734 -0.1451134,-0.145114 -6.0017338,-3.077236 -6.0017338,-3.282457 0,-0.205222 5.8566205,-3.137345 6.0017339,-3.282458 0.1451134,-0.145113 3.0772356,-6.001734 3.2824569,-6.001734 0.2052214,0 3.1373442,5.856621 3.2824576,6.001734 0.1451134,0.145114 6.0017341,3.077236 6.0017341,3.282457 0,0.205221 -5.8566208,3.137344 -6.0017342,3.282458 -0.1451134,0.145113 -3.0772356,6.001734 -3.282457,6.001734 z"
       transform="matrix(0.32256166,0,0,0.55826393,4.106361,50.420967)" />
    <path
       sodipodi:type="star"
       style="fill:#ffd42a;fill-opacity:1;stroke:#ffe579;stroke-width:0.957;stroke-miterlimit:4;stroke-dasharray:none;stroke-opacity:1;paint-order:markers fill stroke"
       id="path850-4"
       sodipodi:sides="4"
       sodipodi:cx="5.9259286"
       sodipodi:cy="92.445068"
       sodipodi:r1="9.2841911"
       sodipodi:r2="4.6420956"
       sodipodi:arg1="1.5707963"
       sodipodi:arg2="2.3561945"
       inkscape:flatsided="false"
       inkscape:rounded="0.03"
       inkscape:randomized="0"
       d="m 5.9259288,101.72926 c -0.2052213,0 -3.1373441,-5.856621 -3.2824575,-6.001734 -0.1451134,-0.145114 -6.0017338,-3.077236 -6.0017338,-3.282457 0,-0.205222 5.8566205,-3.137345 6.0017339,-3.282458 0.1451134,-0.145113 3.0772356,-6.001734 3.2824569,-6.001734 0.2052214,0 3.1373442,5.856621 3.2824576,6.001734 0.1451134,0.145114 6.0017341,3.077236 6.0017341,3.282457 0,0.205221 -5.8566208,3.137344 -6.0017342,3.282458 -0.1451134,0.145113 -3.0772356,6.001734 -3.282457,6.001734 z"
       transform="matrix(0.32256166,0,0,0.55826393,4.3765609,38.790192)" />
    <path
       sodipodi:type="star"
       style="fill:#ffd42a;fill-opacity:1;stroke:#ffe579;stroke-width:0.957;stroke-miterlimit:4;stroke-dasharray:none;stroke-opacity:1;paint-order:markers fill stroke"
       id="path850-1-9"
       sodipodi:sides="4"
       sodipodi:cx="5.9259286"
       sodipodi:cy="92.445068"
       sodipodi:r1="9.2841911"
       sodipodi:r2="4.6420956"
       sodipodi:arg1="1.5707963"
       sodipodi:arg2="2.3561945"
       inkscape:flatsided="false"
       inkscape:rounded="0.03"
       inkscape:randomized="0"
       d="m 5.9259288,101.72926 c -0.2052213,0 -3.1373441,-5.856621 -3.2824575,-6.001734 -0.1451134,-0.145114 -6.0017338,-3.077236 -6.0017338,-3.282457 0,-0.205222 5.8566205,-3.137345 6.0017339,-3.282458 0.1451134,-0.145113 3.0772356,-6.001734 3.2824569,-6.001734 0.2052214,0 3.1373442,5.856621 3.2824576,6.001734 0.1451134,0.145114 6.0017341,3.077236 6.0017341,3.282457 0,0.205221 -5.8566208,3.137344 -6.0017342,3.282458 -0.1451134,0.145113 -3.0772356,6.001734 -3.282457,6.001734 z"
       transform="matrix(0.32256166,0,0,0.55826393,4.3832375,27.038864)" />
    <path
       sodipodi:type="star"
       style="fill:#ffd42a;fill-opacity:1;stroke:#ffe579;stroke-width:0.957;stroke-miterlimit:4;stroke-dasharray:none;stroke-opacity:1;paint-order:markers fill stroke"
       id="path850-9"
       sodipodi:sides="4"
       sodipodi:cx="5.9259286"
       sodipodi:cy="92.445068"
       sodipodi:r1="9.2841911"
       sodipodi:r2="4.6420956"
       sodipodi:arg1="1.5707963"
       sodipodi:arg2="2.3561945"
       inkscape:flatsided="false"
       inkscape:rounded="0.03"
       inkscape:randomized="0"
       d="m 5.9259288,101.72926 c -0.2052213,0 -3.1373441,-5.856621 -3.2824575,-6.001734 -0.1451134,-0.145114 -6.0017338,-3.077236 -6.0017338,-3.282457 0,-0.205222 5.8566205,-3.137345 6.0017339,-3.282458 0.1451134,-0.145113 3.0772356,-6.001734 3.2824569,-6.001734 0.2052214,0 3.1373442,5.856621 3.2824576,6.001734 0.1451134,0.145114 6.0017341,3.077236 6.0017341,3.282457 0,0.205221 -5.8566208,3.137344 -6.0017342,3.282458 -0.1451134,0.145113 -3.0772356,6.001734 -3.282457,6.001734 z"
       transform="matrix(0.32256166,0,0,0.55826393,4.3065067,15.194828)" />
    <path
       sodipodi:type="star"
       style="fill:#ffd42a;fill-opacity:1;stroke:#ffe579;stroke-width:0.957;stroke-miterlimit:4;stroke-dasharray:none;stroke-opacity:1;paint-order:markers fill stroke"
       id="path850-1-5"
       sodipodi:sides="4"
       sodipodi:cx="5.9259286"
       sodipodi:cy="92.445068"
       sodipodi:r1="9.2841911"
       sodipodi:r2="4.6420956"
       sodipodi:arg1="1.5707963"
       sodipodi:arg2="2.3561945"
       inkscape:flatsided="false"
       inkscape:rounded="0.03"
       inkscape:randomized="0"
       d="m 5.9259288,101.72926 c -0.2052213,0 -3.1373441,-5.856621 -3.2824575,-6.001734 -0.1451134,-0.145114 -6.0017338,-3.077236 -6.0017338,-3.282457 0,-0.205222 5.8566205,-3.137345 6.0017339,-3.282458 0.1451134,-0.145113 3.0772356,-6.001734 3.2824569,-6.001734 0.2052214,0 3.1373442,5.856621 3.2824576,6.001734 0.1451134,0.145114 6.0017341,3.077236 6.0017341,3.282457 0,0.205221 -5.8566208,3.137344 -6.0017342,3.282458 -0.1451134,0.145113 -3.0772356,6.001734 -3.282457,6.001734 z"
       transform="matrix(0.32256166,0,0,0.55826393,4.3131836,3.4435004)" />
    <path
       sodipodi:type="star"
       style="fill:#ffd42a;fill-opacity:1;stroke:#ffe579;stroke-width:0.957;stroke-miterlimit:4;stroke-dasharray:none;stroke-opacity:1;paint-order:markers fill stroke"
       id="path850-4-8"
       sodipodi:sides="4"
       sodipodi:cx="5.9259286"
       sodipodi:cy="92.445068"
       sodipodi:r1="9.2841911"
       sodipodi:r2="4.6420956"
       sodipodi:arg1="1.5707963"
       sodipodi:arg2="2.3561945"
       inkscape:flatsided="false"
       inkscape:rounded="0.03"
       inkscape:randomized="0"
       d="m 5.9259288,101.72926 c -0.2052213,0 -3.1373441,-5.856621 -3.2824575,-6.001734 -0.1451134,-0.145114 -6.0017338,-3.077236 -6.0017338,-3.282457 0,-0.205222 5.8566205,-3.137345 6.0017339,-3.282458 0.1451134,-0.145113 3.0772356,-6.001734 3.2824569,-6.001734 0.2052214,0 3.1373442,5.856621 3.2824576,6.001734 0.1451134,0.145114 6.0017341,3.077236 6.0017341,3.282457 0,0.205221 -5.8566208,3.137344 -6.0017342,3.282458 -0.1451134,0.145113 -3.0772356,6.001734 -3.282457,6.001734 z"
       transform="matrix(0.32256166,0,0,0.55826393,4.3098456,-8.8711198)" />
    <path
       sodipodi:type="star"
       style="fill:#ffd42a;fill-opacity:1;stroke:#ffe579;stroke-width:0.957;stroke-miterlimit:4;stroke-dasharray:none;stroke-opacity:1;paint-order:markers fill stroke"
       id="path850-1-9-5"
       sodipodi:sides="4"
       sodipodi:cx="5.9259286"
       sodipodi:cy="92.445068"
       sodipodi:r1="9.2841911"
       sodipodi:r2="4.6420956"
       sodipodi:arg1="1.5707963"
       sodipodi:arg2="2.3561945"
       inkscape:flatsided="false"
       inkscape:rounded="0.03"
       inkscape:randomized="0"
       d="m 5.9259288,101.72926 c -0.2052213,0 -3.1373441,-5.856621 -3.2824575,-6.001734 -0.1451134,-0.145114 -6.0017338,-3.077236 -6.0017338,-3.282457 0,-0.205222 5.8566205,-3.137345 6.0017339,-3.282458 0.1451134,-0.145113 3.0772356,-6.001734 3.2824569,-6.001734 0.2052214,0 3.1373442,5.856621 3.2824576,6.001734 0.1451134,0.145114 6.0017341,3.077236 6.0017341,3.282457 0,0.205221 -5.8566208,3.137344 -6.0017342,3.282458 -0.1451134,0.145113 -3.0772356,6.001734 -3.282457,6.001734 z"
       transform="matrix(0.32256166,0,0,0.55826393,4.1797534,-20.622448)" />
    <path
       sodipodi:type="star"
       style="fill:#ffd42a;fill-opacity:1;stroke:#ffe579;stroke-width:0.957;stroke-miterlimit:4;stroke-dasharray:none;stroke-opacity:1;paint-order:markers fill stroke"
       id="path850-1-9-5-9"
       sodipodi:sides="4"
       sodipodi:cx="5.9259286"
       sodipodi:cy="92.445068"
       sodipodi:r1="9.2841911"
       sodipodi:r2="4.6420956"
       sodipodi:arg1="1.5707963"
       sodipodi:arg2="2.3561945"
       inkscape:flatsided="false"
       inkscape:rounded="0.03"
       inkscape:randomized="0"
       d="m 5.9259288,101.72926 c -0.2052213,0 -3.1373441,-5.856621 -3.2824575,-6.001734 -0.1451134,-0.145114 -6.0017338,-3.077236 -6.0017338,-3.282457 0,-0.205222 5.8566205,-3.137345 6.0017339,-3.282458 0.1451134,-0.145113 3.0772356,-6.001734 3.2824569,-6.001734 0.2052214,0 3.1373442,5.856621 3.2824576,6.001734 0.1451134,0.145114 6.0017341,3.077236 6.0017341,3.282457 0,0.205221 -5.8566208,3.137344 -6.0017342,3.282458 -0.1451134,0.145113 -3.0772356,6.001734 -3.282457,6.001734 z"
       transform="matrix(0.32256166,0,0,0.55826393,4.4714042,-32.653523)" />
    <path
       sodipodi:type="star"
       style="fill:#ffd42a;fill-opacity:1;stroke:#ffe579;stroke-width:0.957;stroke-miterlimit:4;stroke-dasharray:none;stroke-opacity:1;paint-order:markers fill stroke"
       id="path850-49"
       sodipodi:sides="4"
       sodipodi:cx="5.9259286"
       sodipodi:cy="92.445068"
       sodipodi:r1="9.2841911"
       sodipodi:r2="4.6420956"
       sodipodi:arg1="1.5707963"
       sodipodi:arg2="2.3561945"
       inkscape:flatsided="false"
       inkscape:rounded="0.03"
       inkscape:randomized="0"
       d="m 5.9259288,101.72926 c -0.2052213,0 -3.1373441,-5.856621 -3.2824575,-6.001734 -0.1451134,-0.145114 -6.0017338,-3.077236 -6.0017338,-3.282457 0,-0.205222 5.8566205,-3.137345 6.0017339,-3.282458 0.1451134,-0.145113 3.0772356,-6.001734 3.2824569,-6.001734 0.2052214,0 3.1373442,5.856621 3.2824576,6.001734 0.1451134,0.145114 6.0017341,3.077236 6.0017341,3.282457 0,0.205221 -5.8566208,3.137344 -6.0017342,3.282458 -0.1451134,0.145113 -3.0772356,6.001734 -3.282457,6.001734 z"
       transform="matrix(0.32256166,0,0,0.55826393,91.858971,62.115275)" />
    <path
       sodipodi:type="star"
       style="fill:#ffd42a;fill-opacity:1;stroke:#ffe579;stroke-width:0.957;stroke-miterlimit:4;stroke-dasharray:none;stroke-opacity:1;paint-order:markers fill stroke"
       id="path850-1-8"
       sodipodi:sides="4"
       sodipodi:cx="5.9259286"
       sodipodi:cy="92.445068"
       sodipodi:r1="9.2841911"
       sodipodi:r2="4.6420956"
       sodipodi:arg1="1.5707963"
       sodipodi:arg2="2.3561945"
       inkscape:flatsided="false"
       inkscape:rounded="0.03"
       inkscape:randomized="0"
       d="m 5.9259288,101.72926 c -0.2052213,0 -3.1373441,-5.856621 -3.2824575,-6.001734 -0.1451134,-0.145114 -6.0017338,-3.077236 -6.0017338,-3.282457 0,-0.205222 5.8566205,-3.137345 6.0017339,-3.282458 0.1451134,-0.145113 3.0772356,-6.001734 3.2824569,-6.001734 0.2052214,0 3.1373442,5.856621 3.2824576,6.001734 0.1451134,0.145114 6.0017341,3.077236 6.0017341,3.282457 0,0.205221 -5.8566208,3.137344 -6.0017342,3.282458 -0.1451134,0.145113 -3.0772356,6.001734 -3.282457,6.001734 z"
       transform="matrix(0.32256166,0,0,0.55826393,91.865648,50.363945)" />
    <path
       sodipodi:type="star"
       style="fill:#ffd42a;fill-opacity:1;stroke:#ffe579;stroke-width:0.957;stroke-miterlimit:4;stroke-dasharray:none;stroke-opacity:1;paint-order:markers fill stroke"
       id="path850-4-9"
       sodipodi:sides="4"
       sodipodi:cx="5.9259286"
       sodipodi:cy="92.445068"
       sodipodi:r1="9.2841911"
       sodipodi:r2="4.6420956"
       sodipodi:arg1="1.5707963"
       sodipodi:arg2="2.3561945"
       inkscape:flatsided="false"
       inkscape:rounded="0.03"
       inkscape:randomized="0"
       d="m 5.9259288,101.72926 c -0.2052213,0 -3.1373441,-5.856621 -3.2824575,-6.001734 -0.1451134,-0.145114 -6.0017338,-3.077236 -6.0017338,-3.282457 0,-0.205222 5.8566205,-3.137345 6.0017339,-3.282458 0.1451134,-0.145113 3.0772356,-6.001734 3.2824569,-6.001734 0.2052214,0 3.1373442,5.856621 3.2824576,6.001734 0.1451134,0.145114 6.0017341,3.077236 6.0017341,3.282457 0,0.205221 -5.8566208,3.137344 -6.0017342,3.282458 -0.1451134,0.145113 -3.0772356,6.001734 -3.282457,6.001734 z"
       transform="matrix(0.32256166,0,0,0.55826393,92.135848,38.73317)" />
    <path
       sodipodi:type="star"
       style="fill:#ffd42a;fill-opacity:1;stroke:#ffe579;stroke-width:0.957;stroke-miterlimit:4;stroke-dasharray:none;stroke-opacity:1;paint-order:markers fill stroke"
       id="path850-1-9-1"
       sodipodi:sides="4"
       sodipodi:cx="5.9259286"
       sodipodi:cy="92.445068"
       sodipodi:r1="9.2841911"
       sodipodi:r2="4.6420956"
       sodipodi:arg1="1.5707963"
       sodipodi:arg2="2.3561945"
       inkscape:flatsided="false"
       inkscape:rounded="0.03"
       inkscape:randomized="0"
       d="m 5.9259288,101.72926 c -0.2052213,0 -3.1373441,-5.856621 -3.2824575,-6.001734 -0.1451134,-0.145114 -6.0017338,-3.077236 -6.0017338,-3.282457 0,-0.205222 5.8566205,-3.137345 6.0017339,-3.282458 0.1451134,-0.145113 3.0772356,-6.001734 3.2824569,-6.001734 0.2052214,0 3.1373442,5.856621 3.2824576,6.001734 0.1451134,0.145114 6.0017341,3.077236 6.0017341,3.282457 0,0.205221 -5.8566208,3.137344 -6.0017342,3.282458 -0.1451134,0.145113 -3.0772356,6.001734 -3.282457,6.001734 z"
       transform="matrix(0.32256166,0,0,0.55826393,92.142524,26.981842)" />
    <path
       sodipodi:type="star"
       style="fill:#ffd42a;fill-opacity:1;stroke:#ffe579;stroke-width:0.957;stroke-miterlimit:4;stroke-dasharray:none;stroke-opacity:1;paint-order:markers fill stroke"
       id="path850-9-5"
       sodipodi:sides="4"
       sodipodi:cx="5.9259286"
       sodipodi:cy="92.445068"
       sodipodi:r1="9.2841911"
       sodipodi:r2="4.6420956"
       sodipodi:arg1="1.5707963"
       sodipodi:arg2="2.3561945"
       inkscape:flatsided="false"
       inkscape:rounded="0.03"
       inkscape:randomized="0"
       d="m 5.9259288,101.72926 c -0.2052213,0 -3.1373441,-5.856621 -3.2824575,-6.001734 -0.1451134,-0.145114 -6.0017338,-3.077236 -6.0017338,-3.282457 0,-0.205222 5.8566205,-3.137345 6.0017339,-3.282458 0.1451134,-0.145113 3.0772356,-6.001734 3.2824569,-6.001734 0.2052214,0 3.1373442,5.856621 3.2824576,6.001734 0.1451134,0.145114 6.0017341,3.077236 6.0017341,3.282457 0,0.205221 -5.8566208,3.137344 -6.0017342,3.282458 -0.1451134,0.145113 -3.0772356,6.001734 -3.282457,6.001734 z"
       transform="matrix(0.32256166,0,0,0.55826393,92.065793,15.137806)" />
    <path
       sodipodi:type="star"
       style="fill:#ffd42a;fill-opacity:1;stroke:#ffe579;stroke-width:0.957;stroke-miterlimit:4;stroke-dasharray:none;stroke-opacity:1;paint-order:markers fill stroke"
       id="path850-1-5-4"
       sodipodi:sides="4"
       sodipodi:cx="5.9259286"
       sodipodi:cy="92.445068"
       sodipodi:r1="9.2841911"
       sodipodi:r2="4.6420956"
       sodipodi:arg1="1.5707963"
       sodipodi:arg2="2.3561945"
       inkscape:flatsided="false"
       inkscape:rounded="0.03"
       inkscape:randomized="0"
       d="m 5.9259288,101.72926 c -0.2052213,0 -3.1373441,-5.856621 -3.2824575,-6.001734 -0.1451134,-0.145114 -6.0017338,-3.077236 -6.0017338,-3.282457 0,-0.205222 5.8566205,-3.137345 6.0017339,-3.282458 0.1451134,-0.145113 3.0772356,-6.001734 3.2824569,-6.001734 0.2052214,0 3.1373442,5.856621 3.2824576,6.001734 0.1451134,0.145114 6.0017341,3.077236 6.0017341,3.282457 0,0.205221 -5.8566208,3.137344 -6.0017342,3.282458 -0.1451134,0.145113 -3.0772356,6.001734 -3.282457,6.001734 z"
       transform="matrix(0.32256166,0,0,0.55826393,92.07247,3.3864787)" />
    <path
       sodipodi:type="star"
       style="fill:#ffd42a;fill-opacity:1;stroke:#ffe579;stroke-width:0.957;stroke-miterlimit:4;stroke-dasharray:none;stroke-opacity:1;paint-order:markers fill stroke"
       id="path850-4-8-8"
       sodipodi:sides="4"
       sodipodi:cx="5.9259286"
       sodipodi:cy="92.445068"
       sodipodi:r1="9.2841911"
       sodipodi:r2="4.6420956"
       sodipodi:arg1="1.5707963"
       sodipodi:arg2="2.3561945"
       inkscape:flatsided="false"
       inkscape:rounded="0.03"
       inkscape:randomized="0"
       d="m 5.9259288,101.72926 c -0.2052213,0 -3.1373441,-5.856621 -3.2824575,-6.001734 -0.1451134,-0.145114 -6.0017338,-3.077236 -6.0017338,-3.282457 0,-0.205222 5.8566205,-3.137345 6.0017339,-3.282458 0.1451134,-0.145113 3.0772356,-6.001734 3.2824569,-6.001734 0.2052214,0 3.1373442,5.856621 3.2824576,6.001734 0.1451134,0.145114 6.0017341,3.077236 6.0017341,3.282457 0,0.205221 -5.8566208,3.137344 -6.0017342,3.282458 -0.1451134,0.145113 -3.0772356,6.001734 -3.282457,6.001734 z"
       transform="matrix(0.32256166,0,0,0.55826393,92.069132,-8.9281423)" />
    <path
       sodipodi:type="star"
       style="fill:#ffd42a;fill-opacity:1;stroke:#ffe579;stroke-width:0.957;stroke-miterlimit:4;stroke-dasharray:none;stroke-opacity:1;paint-order:markers fill stroke"
       id="path850-1-9-5-7"
       sodipodi:sides="4"
       sodipodi:cx="5.9259286"
       sodipodi:cy="92.445068"
       sodipodi:r1="9.2841911"
       sodipodi:r2="4.6420956"
       sodipodi:arg1="1.5707963"
       sodipodi:arg2="2.3561945"
       inkscape:flatsided="false"
       inkscape:rounded="0.03"
       inkscape:randomized="0"
       d="m 5.9259288,101.72926 c -0.2052213,0 -3.1373441,-5.856621 -3.2824575,-6.001734 -0.1451134,-0.145114 -6.0017338,-3.077236 -6.0017338,-3.282457 0,-0.205222 5.8566205,-3.137345 6.0017339,-3.282458 0.1451134,-0.145113 3.0772356,-6.001734 3.2824569,-6.001734 0.2052214,0 3.1373442,5.856621 3.2824576,6.001734 0.1451134,0.145114 6.0017341,3.077236 6.0017341,3.282457 0,0.205221 -5.8566208,3.137344 -6.0017342,3.282458 -0.1451134,0.145113 -3.0772356,6.001734 -3.282457,6.001734 z"
       transform="matrix(0.32256166,0,0,0.55826393,91.93904,-20.67947)" />
    <path
       sodipodi:type="star"
       style="fill:#ffd42a;fill-opacity:1;stroke:#ffe579;stroke-width:0.957;stroke-miterlimit:4;stroke-dasharray:none;stroke-opacity:1;paint-order:markers fill stroke"
       id="path850-1-9-5-9-6"
       sodipodi:sides="4"
       sodipodi:cx="5.9259286"
       sodipodi:cy="92.445068"
       sodipodi:r1="9.2841911"
       sodipodi:r2="4.6420956"
       sodipodi:arg1="1.5707963"
       sodipodi:arg2="2.3561945"
       inkscape:flatsided="false"
       inkscape:rounded="0.03"
       inkscape:randomized="0"
       d="m 5.9259288,101.72926 c -0.2052213,0 -3.1373441,-5.856621 -3.2824575,-6.001734 -0.1451134,-0.145114 -6.0017338,-3.077236 -6.0017338,-3.282457 0,-0.205222 5.8566205,-3.137345 6.0017339,-3.282458 0.1451134,-0.145113 3.0772356,-6.001734 3.2824569,-6.001734 0.2052214,0 3.1373442,5.856621 3.2824576,6.001734 0.1451134,0.145114 6.0017341,3.077236 6.0017341,3.282457 0,0.205221 -5.8566208,3.137344 -6.0017342,3.282458 -0.1451134,0.145113 -3.0772356,6.001734 -3.282457,6.001734 z"
       transform="matrix(0.32256166,0,0,0.55826393,92.230691,-32.710545)" />
    <path
       sodipodi:type="star"
       style="fill:#ffd42a;fill-opacity:1;stroke:#ffe579;stroke-width:0.957;stroke-miterlimit:4;stroke-dasharray:none;stroke-opacity:1;paint-order:markers fill stroke"
       id="path850-2"
       sodipodi:sides="4"
       sodipodi:cx="5.9259286"
       sodipodi:cy="92.445068"
       sodipodi:r1="9.2841911"
       sodipodi:r2="4.6420956"
       sodipodi:arg1="1.5707963"
       sodipodi:arg2="2.3561945"
       inkscape:flatsided="false"
       inkscape:rounded="0.03"
       inkscape:randomized="0"
       d="m 5.9259288,101.72926 c -0.2052213,0 -3.1373441,-5.856621 -3.2824575,-6.001734 -0.1451134,-0.145114 -6.0017338,-3.077236 -6.0017338,-3.282457 0,-0.205222 5.8566205,-3.137345 6.0017339,-3.282458 0.1451134,-0.145113 3.0772356,-6.001734 3.2824569,-6.001734 0.2052214,0 3.1373442,5.856621 3.2824576,6.001734 0.1451134,0.145114 6.0017341,3.077236 6.0017341,3.282457 0,0.205221 -5.8566208,3.137344 -6.0017342,3.282458 -0.1451134,0.145113 -3.0772356,6.001734 -3.282457,6.001734 z"
       transform="matrix(-0.01404655,-0.32225567,0.55773435,-0.02431065,-35.679725,128.54852)" />
    <path
       sodipodi:type="star"
       style="fill:#ffd42a;fill-opacity:1;stroke:#ffe579;stroke-width:0.957;stroke-miterlimit:4;stroke-dasharray:none;stroke-opacity:1;paint-order:markers fill stroke"
       id="path850-2-5"
       sodipodi:sides="4"
       sodipodi:cx="5.9259286"
       sodipodi:cy="92.445068"
       sodipodi:r1="9.2841911"
       sodipodi:r2="4.6420956"
       sodipodi:arg1="1.5707963"
       sodipodi:arg2="2.3561945"
       inkscape:flatsided="false"
       inkscape:rounded="0.03"
       inkscape:randomized="0"
       d="m 5.9259288,101.72926 c -0.2052213,0 -3.1373441,-5.856621 -3.2824575,-6.001734 -0.1451134,-0.145114 -6.0017338,-3.077236 -6.0017338,-3.282457 0,-0.205222 5.8566205,-3.137345 6.0017339,-3.282458 0.1451134,-0.145113 3.0772356,-6.001734 3.2824569,-6.001734 0.2052214,0 3.1373442,5.856621 3.2824576,6.001734 0.1451134,0.145114 6.0017341,3.077236 6.0017341,3.282457 0,0.205221 -5.8566208,3.137344 -6.0017342,3.282458 -0.1451134,0.145113 -3.0772356,6.001734 -3.282457,6.001734 z"
       transform="matrix(-0.01404655,-0.32225567,0.55773435,-0.02431065,-23.917586,128.48014)" />
    <path
       sodipodi:type="star"
       style="fill:#ffd42a;fill-opacity:1;stroke:#ffe579;stroke-width:0.957;stroke-miterlimit:4;stroke-dasharray:none;stroke-opacity:1;paint-order:markers fill stroke"
       id="path850-2-4"
       sodipodi:sides="4"
       sodipodi:cx="5.9259286"
       sodipodi:cy="92.445068"
       sodipodi:r1="9.2841911"
       sodipodi:r2="4.6420956"
       sodipodi:arg1="1.5707963"
       sodipodi:arg2="2.3561945"
       inkscape:flatsided="false"
       inkscape:rounded="0.03"
       inkscape:randomized="0"
       d="m 5.9259288,101.72926 c -0.2052213,0 -3.1373441,-5.856621 -3.2824575,-6.001734 -0.1451134,-0.145114 -6.0017338,-3.077236 -6.0017338,-3.282457 0,-0.205222 5.8566205,-3.137345 6.0017339,-3.282458 0.1451134,-0.145113 3.0772356,-6.001734 3.2824569,-6.001734 0.2052214,0 3.1373442,5.856621 3.2824576,6.001734 0.1451134,0.145114 6.0017341,3.077236 6.0017341,3.282457 0,0.205221 -5.8566208,3.137344 -6.0017342,3.282458 -0.1451134,0.145113 -3.0772356,6.001734 -3.282457,6.001734 z"
       transform="matrix(-0.01404655,-0.32225567,0.55773435,-0.02431065,-12.360602,128.58271)" />
    <path
       sodipodi:type="star"
       style="fill:#ffd42a;fill-opacity:1;stroke:#ffe579;stroke-width:0.957;stroke-miterlimit:4;stroke-dasharray:none;stroke-opacity:1;paint-order:markers fill stroke"
       id="path850-2-5-3"
       sodipodi:sides="4"
       sodipodi:cx="5.9259286"
       sodipodi:cy="92.445068"
       sodipodi:r1="9.2841911"
       sodipodi:r2="4.6420956"
       sodipodi:arg1="1.5707963"
       sodipodi:arg2="2.3561945"
       inkscape:flatsided="false"
       inkscape:rounded="0.03"
       inkscape:randomized="0"
       d="m 5.9259288,101.72926 c -0.2052213,0 -3.1373441,-5.856621 -3.2824575,-6.001734 -0.1451134,-0.145114 -6.0017338,-3.077236 -6.0017338,-3.282457 0,-0.205222 5.8566205,-3.137345 6.0017339,-3.282458 0.1451134,-0.145113 3.0772356,-6.001734 3.2824569,-6.001734 0.2052214,0 3.1373442,5.856621 3.2824576,6.001734 0.1451134,0.145114 6.0017341,3.077236 6.0017341,3.282457 0,0.205221 -5.8566208,3.137344 -6.0017342,3.282458 -0.1451134,0.145113 -3.0772356,6.001734 -3.282457,6.001734 z"
       transform="matrix(-0.01404655,-0.32225567,0.55773435,-0.02431065,-0.59846251,128.51433)" />
    <path
       sodipodi:type="star"
       style="fill:#ffd42a;fill-opacity:1;stroke:#ffe579;stroke-width:0.957;stroke-miterlimit:4;stroke-dasharray:none;stroke-opacity:1;paint-order:markers fill stroke"
       id="path850-2-8"
       sodipodi:sides="4"
       sodipodi:cx="5.9259286"
       sodipodi:cy="92.445068"
       sodipodi:r1="9.2841911"
       sodipodi:r2="4.6420956"
       sodipodi:arg1="1.5707963"
       sodipodi:arg2="2.3561945"
       inkscape:flatsided="false"
       inkscape:rounded="0.03"
       inkscape:randomized="0"
       d="m 5.9259288,101.72926 c -0.2052213,0 -3.1373441,-5.856621 -3.2824575,-6.001734 -0.1451134,-0.145114 -6.0017338,-3.077236 -6.0017338,-3.282457 0,-0.205222 5.8566205,-3.137345 6.0017339,-3.282458 0.1451134,-0.145113 3.0772356,-6.001734 3.2824569,-6.001734 0.2052214,0 3.1373442,5.856621 3.2824576,6.001734 0.1451134,0.145114 6.0017341,3.077236 6.0017341,3.282457 0,0.205221 -5.8566208,3.137344 -6.0017342,3.282458 -0.1451134,0.145113 -3.0772356,6.001734 -3.282457,6.001734 z"
       transform="matrix(-0.01404655,-0.32225567,0.55773435,-0.02431065,10.582407,128.634)" />
    <path
       sodipodi:type="star"
       style="fill:#ffd42a;fill-opacity:1;stroke:#ffe579;stroke-width:0.957;stroke-miterlimit:4;stroke-dasharray:none;stroke-opacity:1;paint-order:markers fill stroke"
       id="path850-2-5-2"
       sodipodi:sides="4"
       sodipodi:cx="5.9259286"
       sodipodi:cy="92.445068"
       sodipodi:r1="9.2841911"
       sodipodi:r2="4.6420956"
       sodipodi:arg1="1.5707963"
       sodipodi:arg2="2.3561945"
       inkscape:flatsided="false"
       inkscape:rounded="0.03"
       inkscape:randomized="0"
       d="m 5.9259288,101.72926 c -0.2052213,0 -3.1373441,-5.856621 -3.2824575,-6.001734 -0.1451134,-0.145114 -6.0017338,-3.077236 -6.0017338,-3.282457 0,-0.205222 5.8566205,-3.137345 6.0017339,-3.282458 0.1451134,-0.145113 3.0772356,-6.001734 3.2824569,-6.001734 0.2052214,0 3.1373442,5.856621 3.2824576,6.001734 0.1451134,0.145114 6.0017341,3.077236 6.0017341,3.282457 0,0.205221 -5.8566208,3.137344 -6.0017342,3.282458 -0.1451134,0.145113 -3.0772356,6.001734 -3.282457,6.001734 z"
       transform="matrix(-0.01404655,-0.32225567,0.55773435,-0.02431065,22.344546,128.56562)" />
    <path
       sodipodi:type="star"
       style="fill:#ffd42a;fill-opacity:1;stroke:#ffe579;stroke-width:0.957;stroke-miterlimit:4;stroke-dasharray:none;stroke-opacity:1;paint-order:markers fill stroke"
       id="path850-2-4-7"
       sodipodi:sides="4"
       sodipodi:cx="5.9259286"
       sodipodi:cy="92.445068"
       sodipodi:r1="9.2841911"
       sodipodi:r2="4.6420956"
       sodipodi:arg1="1.5707963"
       sodipodi:arg2="2.3561945"
       inkscape:flatsided="false"
       inkscape:rounded="0.03"
       inkscape:randomized="0"
       d="m 5.9259288,101.72926 c -0.2052213,0 -3.1373441,-5.856621 -3.2824575,-6.001734 -0.1451134,-0.145114 -6.0017338,-3.077236 -6.0017338,-3.282457 0,-0.205222 5.8566205,-3.137345 6.0017339,-3.282458 0.1451134,-0.145113 3.0772356,-6.001734 3.2824569,-6.001734 0.2052214,0 3.1373442,5.856621 3.2824576,6.001734 0.1451134,0.145114 6.0017341,3.077236 6.0017341,3.282457 0,0.205221 -5.8566208,3.137344 -6.0017342,3.282458 -0.1451134,0.145113 -3.0772356,6.001734 -3.282457,6.001734 z"
       transform="matrix(-0.01404655,-0.32225567,0.55773435,-0.02431065,33.90153,128.66819)" />
    <path
       sodipodi:type="star"
       style="fill:#ffd42a;fill-opacity:1;stroke:#ffe579;stroke-width:0.957;stroke-miterlimit:4;stroke-dasharray:none;stroke-opacity:1;paint-order:markers fill stroke"
       id="path850-2-9"
       sodipodi:sides="4"
       sodipodi:cx="5.9259286"
       sodipodi:cy="92.445068"
       sodipodi:r1="9.2841911"
       sodipodi:r2="4.6420956"
       sodipodi:arg1="1.5707963"
       sodipodi:arg2="2.3561945"
       inkscape:flatsided="false"
       inkscape:rounded="0.03"
       inkscape:randomized="0"
       d="m 5.9259288,101.72926 c -0.2052213,0 -3.1373441,-5.856621 -3.2824575,-6.001734 -0.1451134,-0.145114 -6.0017338,-3.077236 -6.0017338,-3.282457 0,-0.205222 5.8566205,-3.137345 6.0017339,-3.282458 0.1451134,-0.145113 3.0772356,-6.001734 3.2824569,-6.001734 0.2052214,0 3.1373442,5.856621 3.2824576,6.001734 0.1451134,0.145114 6.0017341,3.077236 6.0017341,3.282457 0,0.205221 -5.8566208,3.137344 -6.0017342,3.282458 -0.1451134,0.145113 -3.0772356,6.001734 -3.282457,6.001734 z"
       transform="matrix(-0.01404655,-0.32225567,0.55773435,-0.02431065,-36.17123,10.320874)" />
    <path
       sodipodi:type="star"
       style="fill:#ffd42a;fill-opacity:1;stroke:#ffe579;stroke-width:0.957;stroke-miterlimit:4;stroke-dasharray:none;stroke-opacity:1;paint-order:markers fill stroke"
       id="path850-2-5-9"
       sodipodi:sides="4"
       sodipodi:cx="5.9259286"
       sodipodi:cy="92.445068"
       sodipodi:r1="9.2841911"
       sodipodi:r2="4.6420956"
       sodipodi:arg1="1.5707963"
       sodipodi:arg2="2.3561945"
       inkscape:flatsided="false"
       inkscape:rounded="0.03"
       inkscape:randomized="0"
       d="m 5.9259288,101.72926 c -0.2052213,0 -3.1373441,-5.856621 -3.2824575,-6.001734 -0.1451134,-0.145114 -6.0017338,-3.077236 -6.0017338,-3.282457 0,-0.205222 5.8566205,-3.137345 6.0017339,-3.282458 0.1451134,-0.145113 3.0772356,-6.001734 3.2824569,-6.001734 0.2052214,0 3.1373442,5.856621 3.2824576,6.001734 0.1451134,0.145114 6.0017341,3.077236 6.0017341,3.282457 0,0.205221 -5.8566208,3.137344 -6.0017342,3.282458 -0.1451134,0.145113 -3.0772356,6.001734 -3.282457,6.001734 z"
       transform="matrix(-0.01404655,-0.32225567,0.55773435,-0.02431065,-24.409091,10.252494)" />
    <path
       sodipodi:type="star"
       style="fill:#ffd42a;fill-opacity:1;stroke:#ffe579;stroke-width:0.957;stroke-miterlimit:4;stroke-dasharray:none;stroke-opacity:1;paint-order:markers fill stroke"
       id="path850-2-4-6"
       sodipodi:sides="4"
       sodipodi:cx="5.9259286"
       sodipodi:cy="92.445068"
       sodipodi:r1="9.2841911"
       sodipodi:r2="4.6420956"
       sodipodi:arg1="1.5707963"
       sodipodi:arg2="2.3561945"
       inkscape:flatsided="false"
       inkscape:rounded="0.03"
       inkscape:randomized="0"
       d="m 5.9259288,101.72926 c -0.2052213,0 -3.1373441,-5.856621 -3.2824575,-6.001734 -0.1451134,-0.145114 -6.0017338,-3.077236 -6.0017338,-3.282457 0,-0.205222 5.8566205,-3.137345 6.0017339,-3.282458 0.1451134,-0.145113 3.0772356,-6.001734 3.2824569,-6.001734 0.2052214,0 3.1373442,5.856621 3.2824576,6.001734 0.1451134,0.145114 6.0017341,3.077236 6.0017341,3.282457 0,0.205221 -5.8566208,3.137344 -6.0017342,3.282458 -0.1451134,0.145113 -3.0772356,6.001734 -3.282457,6.001734 z"
       transform="matrix(-0.01404655,-0.32225567,0.55773435,-0.02431065,-12.852107,10.355064)" />
    <path
       sodipodi:type="star"
       style="fill:#ffd42a;fill-opacity:1;stroke:#ffe579;stroke-width:0.957;stroke-miterlimit:4;stroke-dasharray:none;stroke-opacity:1;paint-order:markers fill stroke"
       id="path850-2-5-3-4"
       sodipodi:sides="4"
       sodipodi:cx="5.9259286"
       sodipodi:cy="92.445068"
       sodipodi:r1="9.2841911"
       sodipodi:r2="4.6420956"
       sodipodi:arg1="1.5707963"
       sodipodi:arg2="2.3561945"
       inkscape:flatsided="false"
       inkscape:rounded="0.03"
       inkscape:randomized="0"
       d="m 5.9259288,101.72926 c -0.2052213,0 -3.1373441,-5.856621 -3.2824575,-6.001734 -0.1451134,-0.145114 -6.0017338,-3.077236 -6.0017338,-3.282457 0,-0.205222 5.8566205,-3.137345 6.0017339,-3.282458 0.1451134,-0.145113 3.0772356,-6.001734 3.2824569,-6.001734 0.2052214,0 3.1373442,5.856621 3.2824576,6.001734 0.1451134,0.145114 6.0017341,3.077236 6.0017341,3.282457 0,0.205221 -5.8566208,3.137344 -6.0017342,3.282458 -0.1451134,0.145113 -3.0772356,6.001734 -3.282457,6.001734 z"
       transform="matrix(-0.01404655,-0.32225567,0.55773435,-0.02431065,-1.0899668,10.286684)" />
    <path
       sodipodi:type="star"
       style="fill:#ffd42a;fill-opacity:1;stroke:#ffe579;stroke-width:0.957;stroke-miterlimit:4;stroke-dasharray:none;stroke-opacity:1;paint-order:markers fill stroke"
       id="path850-2-8-5"
       sodipodi:sides="4"
       sodipodi:cx="5.9259286"
       sodipodi:cy="92.445068"
       sodipodi:r1="9.2841911"
       sodipodi:r2="4.6420956"
       sodipodi:arg1="1.5707963"
       sodipodi:arg2="2.3561945"
       inkscape:flatsided="false"
       inkscape:rounded="0.03"
       inkscape:randomized="0"
       d="m 5.9259288,101.72926 c -0.2052213,0 -3.1373441,-5.856621 -3.2824575,-6.001734 -0.1451134,-0.145114 -6.0017338,-3.077236 -6.0017338,-3.282457 0,-0.205222 5.8566205,-3.137345 6.0017339,-3.282458 0.1451134,-0.145113 3.0772356,-6.001734 3.2824569,-6.001734 0.2052214,0 3.1373442,5.856621 3.2824576,6.001734 0.1451134,0.145114 6.0017341,3.077236 6.0017341,3.282457 0,0.205221 -5.8566208,3.137344 -6.0017342,3.282458 -0.1451134,0.145113 -3.0772356,6.001734 -3.282457,6.001734 z"
       transform="matrix(-0.01404655,-0.32225567,0.55773435,-0.02431065,10.090902,10.406354)" />
    <path
       sodipodi:type="star"
       style="fill:#ffd42a;fill-opacity:1;stroke:#ffe579;stroke-width:0.957;stroke-miterlimit:4;stroke-dasharray:none;stroke-opacity:1;paint-order:markers fill stroke"
       id="path850-2-5-2-7"
       sodipodi:sides="4"
       sodipodi:cx="5.9259286"
       sodipodi:cy="92.445068"
       sodipodi:r1="9.2841911"
       sodipodi:r2="4.6420956"
       sodipodi:arg1="1.5707963"
       sodipodi:arg2="2.3561945"
       inkscape:flatsided="false"
       inkscape:rounded="0.03"
       inkscape:randomized="0"
       d="m 5.9259288,101.72926 c -0.2052213,0 -3.1373441,-5.856621 -3.2824575,-6.001734 -0.1451134,-0.145114 -6.0017338,-3.077236 -6.0017338,-3.282457 0,-0.205222 5.8566205,-3.137345 6.0017339,-3.282458 0.1451134,-0.145113 3.0772356,-6.001734 3.2824569,-6.001734 0.2052214,0 3.1373442,5.856621 3.2824576,6.001734 0.1451134,0.145114 6.0017341,3.077236 6.0017341,3.282457 0,0.205221 -5.8566208,3.137344 -6.0017342,3.282458 -0.1451134,0.145113 -3.0772356,6.001734 -3.282457,6.001734 z"
       transform="matrix(-0.01404655,-0.32225567,0.55773435,-0.02431065,21.853041,10.337974)" />
    <path
       sodipodi:type="star"
       style="fill:#ffd42a;fill-opacity:1;stroke:#ffe579;stroke-width:0.957;stroke-miterlimit:4;stroke-dasharray:none;stroke-opacity:1;paint-order:markers fill stroke"
       id="path850-2-4-7-7"
       sodipodi:sides="4"
       sodipodi:cx="5.9259286"
       sodipodi:cy="92.445068"
       sodipodi:r1="9.2841911"
       sodipodi:r2="4.6420956"
       sodipodi:arg1="1.5707963"
       sodipodi:arg2="2.3561945"
       inkscape:flatsided="false"
       inkscape:rounded="0.03"
       inkscape:randomized="0"
       d="m 5.9259288,101.72926 c -0.2052213,0 -3.1373441,-5.856621 -3.2824575,-6.001734 -0.1451134,-0.145114 -6.0017338,-3.077236 -6.0017338,-3.282457 0,-0.205222 5.8566205,-3.137345 6.0017339,-3.282458 0.1451134,-0.145113 3.0772356,-6.001734 3.2824569,-6.001734 0.2052214,0 3.1373442,5.856621 3.2824576,6.001734 0.1451134,0.145114 6.0017341,3.077236 6.0017341,3.282457 0,0.205221 -5.8566208,3.137344 -6.0017342,3.282458 -0.1451134,0.145113 -3.0772356,6.001734 -3.282457,6.001734 z"
       transform="matrix(-0.01404655,-0.32225567,0.55773435,-0.02431065,33.410025,10.440544)" />
    <g
       id="g1150"
       transform="rotate(-7.2863498,33.190439,70.491826)">
      <ellipse
         style="font-variation-settings:normal;opacity:1;vector-effect:none;fill:#ffd42a;fill-opacity:1;fill-rule:evenodd;stroke:#ffe579;stroke-width:1.191;stroke-linecap:butt;stroke-linejoin:miter;stroke-miterlimit:4;stroke-dasharray:none;stroke-dashoffset:0;stroke-opacity:0.843137;paint-order:markers fill stroke;stop-color:#000000;stop-opacity:1"
         id="path1068"
         cx="54.172276"
         cy="66.444283"
         rx="4.2137461"
         ry="4.0769768" />
      <path
         style="font-variation-settings:normal;opacity:1;vector-effect:none;fill:#df99f6;fill-opacity:1;stroke:#eabdf9;stroke-width:1.281;stroke-linecap:butt;stroke-linejoin:miter;stroke-miterlimit:4;stroke-dasharray:none;stroke-dashoffset:0;stroke-opacity:1;stop-color:#000000;stop-opacity:1"
         d="m 48.696178,61.548204 c 0,0 -8.952231,2.21293 -8.952231,-5.447213 0,-7.660144 -2.02692,-14.128709 -2.02692,-14.128709 0,0 9.45896,5.3621 11.401425,7.404805 2.449196,1.957593 9.205596,6.383453 -0.422274,12.171117 z"
         id="path1070"
         sodipodi:nodetypes="csccc" />
      <path
         style="font-variation-settings:normal;opacity:1;vector-effect:none;fill:#df99f6;fill-opacity:1;stroke:#eabdf9;stroke-width:1.245;stroke-linecap:butt;stroke-linejoin:miter;stroke-miterlimit:4;stroke-dasharray:none;stroke-dashoffset:0;stroke-opacity:1;stop-color:#000000;stop-opacity:1"
         d="m 56.660306,59.248021 c 0,0 -4.646378,-8.246321 3.304785,-10.118025 7.951164,-1.871705 14.133545,-5.441772 14.133545,-5.441772 0,0 -3.083456,10.594607 -4.693996,13.000349 -1.389211,2.882325 -4.210103,10.595479 -12.744334,2.559448 z"
         id="path1070-5"
         sodipodi:nodetypes="csccc" />
      <path
         style="font-variation-settings:normal;opacity:1;vector-effect:none;fill:#df99f6;fill-opacity:1;stroke:#eabdf9;stroke-width:1.245;stroke-linecap:butt;stroke-linejoin:miter;stroke-miterlimit:4;stroke-dasharray:none;stroke-dashoffset:0;stroke-opacity:1;stop-color:#000000;stop-opacity:1"
         d="m 60.710727,65.373314 c 0,0 2.801726,-2.180321 10.643527,0.106693 5.69877,1.662012 9.442828,11.840734 9.442828,11.840734 0,0 -11.031409,0.247797 -13.810303,-0.564107 -3.166778,-0.457412 -11.371291,-0.826358 -6.276052,-11.38332 z"
         id="path1070-5-8"
         sodipodi:nodetypes="csccc" />
      <path
         style="font-variation-settings:normal;opacity:1;vector-effect:none;fill:#df99f6;fill-opacity:1;stroke:#eabdf9;stroke-width:1.248;stroke-linecap:butt;stroke-linejoin:miter;stroke-miterlimit:4;stroke-dasharray:none;stroke-dashoffset:0;stroke-opacity:1;stop-color:#000000;stop-opacity:1"
         d="m 56.620781,74.107993 c 0,0 5.616769,1.409313 4.410877,8.876971 -1.110325,6.875841 -6.166351,12.681083 -6.166351,12.681083 0,0 -2.103393,-9.232826 -5.357971,-11.692292 -0.947096,-2.81532 -4.101171,-9.775387 7.113445,-9.865762 z"
         id="path1070-5-8-5"
         sodipodi:nodetypes="csccc" />
      <path
         style="font-variation-settings:normal;opacity:1;vector-effect:none;fill:#df99f6;fill-opacity:1;stroke:#eabdf9;stroke-width:1.245;stroke-linecap:butt;stroke-linejoin:miter;stroke-miterlimit:4;stroke-dasharray:none;stroke-dashoffset:0;stroke-opacity:1;stop-color:#000000;stop-opacity:1"
         d="m 48.412405,67.15759 c 0,0 2.997603,9.757488 -5.158647,9.310446 -9.079204,-0.497626 -14.907633,2.670666 -14.907633,2.670666 0,0 1.001196,-10.456876 5.752305,-12.540687 0,0 7.453507,-8.945417 14.313975,0.559575 z"
         id="path1070-5-8-05"
         sodipodi:nodetypes="csccc" />
    </g>
  </g>
</svg>
