<?xml version="1.0" encoding="UTF-8" standalone="no"?>
<svg
   xmlns:dc="http://purl.org/dc/elements/1.1/"
   xmlns:cc="http://creativecommons.org/ns#"
   xmlns:rdf="http://www.w3.org/1999/02/22-rdf-syntax-ns#"
   xmlns:svg="http://www.w3.org/2000/svg"
   xmlns="http://www.w3.org/2000/svg"
   xmlns:sodipodi="http://sodipodi.sourceforge.net/DTD/sodipodi-0.dtd"
   xmlns:inkscape="http://www.inkscape.org/namespaces/inkscape"
   width="100"
   height="100"
   viewBox="0 0 100 100"
   version="1.1"
   id="svg8"
   sodipodi:docname="floom_wedding.svg"
   inkscape:version="1.0.1 (3bc2e813f5, 2020-09-07)">
  <sodipodi:namedview
     pagecolor="#ffffff"
     bordercolor="#666666"
     borderopacity="1"
     objecttolerance="10"
     gridtolerance="10"
     guidetolerance="10"
     inkscape:pageopacity="0"
     inkscape:pageshadow="2"
     inkscape:window-width="707"
     inkscape:window-height="480"
     id="namedview12"
     showgrid="false"
     inkscape:zoom="3.2385491"
     inkscape:cx="34.988344"
     inkscape:cy="44.696955"
     inkscape:window-x="167"
     inkscape:window-y="33"
     inkscape:window-maximized="0"
     inkscape:current-layer="svg8" />
  <defs
     id="defs2" />
  <metadata
     id="metadata5">
    <rdf:RDF>
      <cc:Work
         rdf:about="">
        <dc:format>image/svg+xml</dc:format>
        <dc:type
           rdf:resource="http://purl.org/dc/dcmitype/StillImage" />
        <dc:title />
      </cc:Work>
    </rdf:RDF>
  </metadata>
  <path
     style="font-variation-settings:normal;vector-effect:none;fill:#ffe6d5;fill-opacity:1;fill-rule:nonzero;stroke:none;stroke-width:2.1331px;stroke-linecap:butt;stroke-linejoin:miter;stroke-miterlimit:4;stroke-dasharray:none;stroke-dashoffset:0;stroke-opacity:1;stop-color:#000000"
     d="m 34.228282,56.023097 c -11.159869,7.22494 -19.711976,26.067988 -19.711976,26.067988 0,0 4.266126,2.278931 8.714769,1.314353 2.843916,-0.616634 4.89324,4.310565 8.29978,1.314353 2.234392,-1.965252 4.904835,1.715979 9.544746,0.876235 0,0 4.571527,-3.150864 6.639824,-1.752471 3.791817,2.563678 6.692302,2.317024 8.922262,0.219059 3.426802,-2.938676 4.127012,2.135613 6.847319,-1.095293 2.115725,-2.512845 -4.657824,-14.398923 -15.147098,-28.039518 -0.964977,-1.254887 -2.441461,-6.452246 -2.441461,-6.452246 0,0 2.168449,0.574729 4.453768,0.524472 0.622835,-0.0137 0.229339,-1.40977 -0.466306,-1.441418 l -4.139682,-0.630273 v -1.858173 c 0,0 0.502064,-1.172964 1.14122,-1.97153 1.027702,-1.284018 1.180759,-2.7049 0.103747,-3.943057 -1.123754,-1.291889 -2.749303,-2.57394 -2.749303,-2.57394 -0.619468,-1.707066 -1.736571,-2.175923 -1.478398,-3.066821 0.45491,-1.492426 1.506934,-1.536688 1.789641,-3.094205 0.243576,-1.34194 0.115233,-4.002636 -2.515872,-5.25741 -3.500137,-1.669214 -5.196815,1.422925 -5.835781,2.957293 -0.921677,2.213249 0.829977,5.394322 0.829977,5.394322 0,0 -7.20873,4.796948 -8.29978,10.40529 -0.388121,1.995065 0.778105,4.490703 0.778105,4.490703 l 3.112418,3.450176 c 0,0 1.542182,-1.720007 1.957083,-2.942866 0.331695,-0.97762 2.24468,-0.343016 2.24468,-0.343016 0,0 -0.598551,6.156342 -2.593682,7.447998 z"
     id="path870" />
  <path
     style="fill:#ffe6d5;fill-opacity:1;stroke-width:0.106091"
     d="m 72.630331,87.141555 4.9e-5,6e-6 c 0.537023,0.198542 3.080581,0.141619 4.097984,-0.09171 0.660472,-0.151471 0.909498,-0.270698 1.965177,-0.940872 0.466336,-0.296045 0.471413,-0.296814 0.875862,-0.132918 0.39682,0.160801 0.423787,0.158373 1.098458,-0.09892 l 0.691651,-0.263768 0.01176,-0.701374 c 0.0065,-0.385755 0.0159,-0.811396 0.0209,-0.945869 0.005,-0.134473 0.01171,-0.706593 0.01481,-1.271379 0.0031,-0.564786 0.01314,-1.643013 0.02234,-2.39606 0.01891,-1.552312 -0.106362,-4.60373 -0.287074,-6.992584 -0.107089,-1.415616 -0.303045,-5.581819 -0.265645,-5.647759 0.0076,-0.01339 0.459614,0.07358 1.004483,0.193276 0.544868,0.119696 1.020558,0.192226 1.057088,0.161186 0.03653,-0.03104 -0.0099,-0.316059 -0.103284,-0.633368 -0.564928,-1.920541 -0.750629,-4.280525 -0.747929,-9.504609 0.0024,-4.62714 -0.03996,-5.203414 -0.555038,-7.551346 -0.272309,-1.241292 -0.309839,-1.649724 -0.301439,-3.276246 0.0091,-1.755661 0.03722,-1.984954 0.509345,-4.156431 0.462596,-2.127646 0.499816,-2.421685 0.501816,-3.960834 0.0022,-1.707854 -0.13057,-2.545167 -0.611867,-3.859283 -0.344917,-0.941745 -2.609294,-4.012172 -3.308557,-4.486302 -0.211447,-0.14337 -0.384449,-0.316771 -0.384451,-0.385341 -3e-6,-0.06857 -0.129476,-0.166496 -0.287719,-0.217626 -0.03436,-0.238672 -0.212788,-0.534369 -0.08152,-0.782387 0.03538,-0.434701 0.10144,-1.104923 0.10984,-1.611396 0.168275,-1.864539 -0.143648,-2.974684 -1.086096,-3.865452 -0.855396,-0.808489 -1.225938,-0.928946 -2.857573,-0.928946 -1.324123,0 -1.415572,0.01344 -2.132334,0.313291 -0.411883,0.17231 -1.078671,0.566905 -1.48175,0.876877 -1.151883,0.902411 -0.959535,1.909837 -0.929405,2.862262 0.30362,1.179526 0.105438,2.515785 1.147659,3.55085 0.358808,0.71645 0.527604,1.242172 1.465256,0.889363 l 0.761336,-0.162514 0.206838,0.235863 c 0.11376,0.129724 0.320768,0.361188 0.460016,0.514364 l 0.253178,0.278501 -0.19951,0.992878 c -0.109731,0.546082 -0.505657,1.76304 -0.879836,2.704349 -0.973299,2.448497 -1.038082,2.826689 -1.108872,6.473501 l -0.06017,3.099456 -1.281913,0.264411 c -1.078591,0.222474 -1.50552,0.261624 -2.69172,0.246874 l -1.409806,-0.01754 v 1.271239 1.27124 l 0.368159,0.356323 c 0.348443,0.337239 0.396211,0.353079 0.891919,0.295699 0.288067,-0.03334 0.776397,-0.193848 1.085178,-0.356678 0.308781,-0.162829 0.569244,-0.283356 0.578844,-0.267846 0.0096,0.01551 0.105682,0.193242 0.213551,0.394951 0.107869,0.201709 0.262065,0.366744 0.342655,0.366744 0.08059,0 0.599317,-0.105861 1.152724,-0.235247 0.553408,-0.129386 1.010048,-0.228446 1.014748,-0.220046 0.01695,0.03012 0.08533,0.414952 0.15041,0.846487 0.03651,0.242051 0.08869,1.606338 0.115959,3.031749 0.05327,2.784232 0.222488,4.073871 0.821293,6.259097 0.481995,1.75896 0.525405,1.969734 0.523105,2.542758 -0.0012,0.29584 0.07254,1.132016 0.163781,1.858169 0.245209,1.951468 0.403538,3.62421 0.403538,4.263362 0,0.799985 0.297929,1.71607 0.871692,2.680323 0.762366,1.281214 0.822879,1.727395 0.460988,3.399016 -0.22636,1.045562 -0.27815,1.510356 -0.21192,1.901859 0.10195,0.602677 0.10401,1.063091 0.01722,3.842783 l -0.06411,2.053277 -0.623252,0.417744 c -0.342788,0.22976 -0.882195,0.481501 -1.198682,0.559431 -0.316487,0.07793 -0.808481,0.198225 -1.093319,0.267335 -0.462576,0.112226 -0.521716,0.159359 -0.553756,0.441262 -0.03008,0.264708 0.02252,0.34579 0.32614,0.502695 0.536063,0.277029 2.164168,0.541172 2.924564,0.474482 0.350595,-0.03075 0.662673,-0.02121 0.693513,0.02119 0.126766,0.174299 -1.026057,0.987483 -2.015661,1.421816 -1.156499,0.507585 -1.405478,0.761954 -1.147199,1.172058 0.0827,0.131308 0.337207,0.307824 0.56558,0.392254 z"
     id="path963" />
  <g
     id="g42"
     transform="translate(-1.8526815,0.30878026)">
    <path
       id="rect903"
       style="fill:none;fill-opacity:1;stroke:#ff6d7c;stroke-width:1.00157;stroke-opacity:1;paint-order:markers fill stroke"
       d="M 59.925224,40.823162 58.57952,39.477458 C 57.608921,38.50686 56.342298,38.02238 55.075614,38.02238 v 0 c -1.266684,0 -2.533308,0.484479 -3.503907,1.455078 -1.941197,1.941197 -1.941197,5.066616 0,7.007813 l 1.705079,1.705078 6.603515,6.603515" />
    <path
       id="path944"
       style="fill:none;fill-opacity:1;stroke:#ff6d7c;stroke-width:1.00157;stroke-opacity:1;paint-order:markers fill stroke"
       d="m 59.880301,54.793864 0.404297,0.404297 7.007812,-7.007812 1.705079,-1.705078 c 1.941197,-1.941198 1.941197,-5.066615 0,-7.007812 -0.970599,-0.970599 -2.237223,-1.455078 -3.503907,-1.455078 -1.266684,0 -2.533307,0.484479 -3.503906,1.455078 l -1.705078,1.705078 -0.359374,-0.359374" />
  </g>
</svg>
