<?xml version="1.0" encoding="UTF-8" standalone="no"?>
<svg
   xmlns:dc="http://purl.org/dc/elements/1.1/"
   xmlns:cc="http://creativecommons.org/ns#"
   xmlns:rdf="http://www.w3.org/1999/02/22-rdf-syntax-ns#"
   xmlns:svg="http://www.w3.org/2000/svg"
   xmlns="http://www.w3.org/2000/svg"
   width="100"
   height="100"
   viewBox="0 0 100 100"
   version="1.1"
   id="svg8">
  <defs
     id="defs2" />
  <metadata
     id="metadata5">
    <rdf:RDF>
      <cc:Work
         rdf:about="">
        <dc:format>image/svg+xml</dc:format>
        <dc:type
           rdf:resource="http://purl.org/dc/dcmitype/StillImage" />
        <dc:title></dc:title>
      </cc:Work>
    </rdf:RDF>
  </metadata>
  <g
     id="layer1">
    <path
       style="fill:#ffdef7;stroke:#ccbdf9;stroke-width:2.5267px;stroke-linecap:butt;stroke-linejoin:miter;stroke-opacity:1;fill-opacity:1"
       d="M 15.878815,11.883592 C 3.4514248,21.840828 7.8515967,45.401038 13.985754,60.276618 23.923897,84.377024 63.80367,104.08719 81.504892,89.312437 99.820767,74.024648 90.985855,36.205634 74.563671,24.143155 59.646428,13.186095 31.594521,-0.70835359 15.878815,11.883592 Z"
       id="path10" />
    <ellipse
       style="fill:#ffe6d5;fill-opacity:0.980392;stroke:#ffdeca;stroke-width:1.0016;paint-order:markers fill stroke;stroke-opacity:1"
       id="path12"
       cx="50.339687"
       cy="17.603365"
       rx="18.562202"
       ry="17.925556"
       transform="matrix(0.91503873,0.40336599,-0.39306979,0.91950864,0,0)" />
    <path
       style="font-variation-settings:normal;opacity:1;vector-effect:none;fill:#fedac4;fill-opacity:1;fill-rule:nonzero;stroke:none;stroke-width:2.5267px;stroke-linecap:butt;stroke-linejoin:miter;stroke-miterlimit:4;stroke-dasharray:none;stroke-dashoffset:0;stroke-opacity:1;stop-color:#000000;stop-opacity:1"
       d="m 26.204948,26.761135 c 0.404893,0.818239 1.010604,1.585354 1.839057,2.255381 0.665052,0.537873 1.423646,0.971974 2.213261,1.300815 0.354514,0.147639 0.709003,0.271348 1.0525,0.371008 0.326306,0.09467 0.643496,0.167845 0.938014,0.217993 0.27789,0.04732 0.554522,0.07737 0.805298,0.07939 0.12139,9.79e-4 0.259253,-0.0043 0.399801,-0.02504 0.07046,-0.01037 0.15369,-0.02634 0.243007,-0.05228 0.08561,-0.02485 0.201775,-0.06599 0.326128,-0.136602 0.483308,-0.274455 0.886894,-0.614994 1.196257,-1.043154 0.297607,-0.411889 0.465141,-0.845326 0.568249,-1.263737 0.09681,-0.392837 0.141165,-0.79464 0.177554,-1.140636 0.03809,-0.362163 0.06932,-0.685397 0.130218,-1.029613 0.0018,-0.01024 0.0018,-7.7e-4 -0.01223,0.0414 -0.01001,0.02998 -0.04522,0.130329 -0.130753,0.249744 -0.04524,0.06315 -0.11517,0.146574 -0.217102,0.227833 -0.104448,0.08326 -0.244793,0.16579 -0.420877,0.215464 -0.179514,0.05064 -0.362032,0.05733 -0.532817,0.02791 -0.165879,-0.02857 -0.299047,-0.08717 -0.396067,-0.143685 -0.0961,-0.05598 -0.166638,-0.115545 -0.213724,-0.160817 -0.04784,-0.046 -0.08223,-0.08763 -0.104813,-0.117416 -0.04349,-0.05738 -0.06523,-0.10015 -0.07057,-0.110861 -0.01573,-0.03154 0.0016,0.0025 0.01876,0.06212 0.01793,0.06247 0.03793,0.147983 0.0562,0.25372 0.01838,0.106366 0.03378,0.226051 0.0441,0.354338 0.01079,0.134266 0.01554,0.271691 0.01355,0.408336 -0.21557,0.20382 -0.421918,0.36955 -0.617533,0.503736 -0.289067,0.19829 -0.557196,0.329463 -0.802296,0.413659 -0.248554,0.08538 -0.483716,0.126018 -0.706879,0.134414 -0.227983,0.0086 -0.454091,-0.01613 -0.679267,-0.06992 -0.468502,-0.111904 -0.937746,-0.3512 -1.390196,-0.680662 -0.473175,-0.344555 -0.903258,-0.769692 -1.268527,-1.199622 -0.386951,-0.455451 -0.693065,-0.906348 -0.905473,-1.26783 -0.11262,-0.191661 -0.196765,-0.35443 -0.254651,-0.480083 -0.02982,-0.06473 -0.05091,-0.115775 -0.06497,-0.153167 -0.01401,-0.03725 -0.01925,-0.05839 -0.01637,-0.04673 0.0011,0.0046 0.0053,0.0221 0.0094,0.05016 0.0038,0.0264 0.0099,0.07902 0.0083,0.149856 -0.0015,0.06632 -0.01053,0.193363 -0.06411,0.346364 -0.02822,0.0806 -0.07197,0.17743 -0.140415,0.278053 -0.07007,0.103011 -0.16401,0.206818 -0.285924,0.296486 -0.123713,0.09099 -0.259435,0.155002 -0.397823,0.193402 -0.137114,0.03805 -0.263554,0.04739 -0.369288,0.04344 -0.203752,-0.0076 -0.354298,-0.06524 -0.428106,-0.09821 -0.08121,-0.03628 -0.13643,-0.07313 -0.161663,-0.09094 -0.02817,-0.01988 -0.04427,-0.0341 -0.04718,-0.03668 -0.0091,-0.0081 0.01576,0.01466 0.05336,0.05736 0.04021,0.04567 0.09272,0.109481 0.157821,0.194348 0.140014,0.182536 0.315198,0.432289 0.522932,0.750796 z m 2.190482,-1.250459 c -0.229029,-0.351157 -0.44237,-0.657875 -0.634451,-0.90829 -0.09008,-0.117435 -0.1792,-0.227355 -0.266213,-0.326188 -0.08176,-0.09287 -0.173367,-0.189343 -0.271864,-0.276829 -0.04868,-0.04324 -0.107002,-0.0914 -0.173741,-0.138505 -0.06318,-0.0446 -0.152795,-0.101706 -0.264726,-0.151711 -0.104067,-0.04649 -0.281301,-0.111287 -0.508075,-0.11977 -0.117125,-0.0044 -0.254052,0.0061 -0.400737,0.04679 -0.147906,0.04104 -0.292241,0.109209 -0.423653,0.205861 -0.129573,0.0953 -0.230265,0.206225 -0.306184,0.317829 -0.07426,0.10917 -0.122921,0.216 -0.155154,0.308055 -0.06151,0.175678 -0.07494,0.33109 -0.07721,0.431383 -0.0024,0.104372 0.0065,0.195981 0.0167,0.266718 0.01032,0.07184 0.02432,0.138344 0.03882,0.19702 0.02818,0.113982 0.06509,0.225614 0.104193,0.329605 0.03895,0.103575 0.08447,0.211155 0.13509,0.32103 0.09783,0.212347 0.222274,0.449674 0.371084,0.702924 0.279838,0.476237 0.669081,1.047849 1.158353,1.623735 0.459225,0.540518 1.032913,1.115531 1.706756,1.606208 0.640433,0.466347 1.411726,0.88577 2.29054,1.095678 0.429035,0.102476 0.884869,0.155187 1.361263,0.137264 0.468658,-0.01763 0.948493,-0.103337 1.432756,-0.269688 0.475815,-0.163449 0.947144,-0.401718 1.410696,-0.7197 0.455961,-0.312774 0.902905,-0.701596 1.340144,-1.171056 0.08994,-0.09656 0.177943,-0.194907 0.263968,-0.294973 0.02676,-0.136714 0.04862,-0.274342 0.06554,-0.41262 0.0553,-0.451891 0.05699,-0.904513 0.02363,-1.319505 -0.01623,-0.20187 -0.04099,-0.397636 -0.07287,-0.58211 -0.03123,-0.180731 -0.07036,-0.356805 -0.117364,-0.520553 -0.04471,-0.155752 -0.104561,-0.328788 -0.186213,-0.492539 -0.04065,-0.08152 -0.09803,-0.183754 -0.176959,-0.287882 -0.04025,-0.05311 -0.09226,-0.114883 -0.157604,-0.17771 -0.06456,-0.06207 -0.152447,-0.135119 -0.265718,-0.2011 -0.114168,-0.0665 -0.264293,-0.131618 -0.446874,-0.163064 -0.187474,-0.03229 -0.386424,-0.02485 -0.582044,0.03034 -0.192183,0.05422 -0.348301,0.145064 -0.468134,0.240593 -0.117304,0.09351 -0.202221,0.193123 -0.261985,0.276559 -0.114566,0.159944 -0.176983,0.317155 -0.211841,0.421584 -0.03748,0.112289 -0.06202,0.221739 -0.07912,0.318404 -0.07984,0.451287 -0.12026,0.875225 -0.155001,1.205541 -0.03762,0.357655 -0.06804,0.597549 -0.118019,0.800352 -0.04684,0.190056 -0.101575,0.303536 -0.162975,0.388514 -0.06293,0.0871 -0.172762,0.199068 -0.395917,0.325791 0.09491,-0.0539 0.174557,-0.0804 0.217096,-0.09275 0.04594,-0.01334 0.07915,-0.01887 0.09349,-0.02098 0.02699,-0.004 0.02638,-0.0015 -0.01147,-0.0018 -0.07645,-6.16e-4 -0.212394,-0.01142 -0.401532,-0.04362 -0.192224,-0.03273 -0.415834,-0.08349 -0.658095,-0.153774 -0.253957,-0.07368 -0.519134,-0.166105 -0.785157,-0.276891 -0.596392,-0.248372 -1.140966,-0.565076 -1.595754,-0.932894 -0.558625,-0.451798 -0.927803,-0.935393 -1.163345,-1.411396 z"
       id="path837" />
    <path
       style="font-variation-settings:normal;opacity:1;vector-effect:none;fill:#e5d5ff;fill-opacity:1;fill-rule:nonzero;stroke:none;stroke-width:2.5267px;stroke-linecap:butt;stroke-linejoin:miter;stroke-miterlimit:4;stroke-dasharray:none;stroke-dashoffset:0;stroke-opacity:1;stop-color:#000000;stop-opacity:1"
       d="m 15.178572,60.535714 0,0 c 0,1e-6 0.133342,0.640778 0.629322,1.276422 0.495979,0.635645 1.337218,1.263072 1.800856,1.25424 1.294985,-0.02467 3.491321,-0.08851 6.382551,-0.233973 4.438737,-0.223328 12.05834,-0.716396 20.540052,-1.809237 7.233092,-0.931961 15.870764,-2.398591 23.730551,-4.739959 3.664475,-1.091618 7.235213,-2.395463 10.439216,-3.959172 3.087273,-1.506739 5.896477,-3.284957 8.119338,-5.395708 l -3.137535,-0.99626 c 0.225104,0.948923 0.290738,1.925709 0.200236,2.936121 -0.08968,1.001246 -0.333325,2.041193 -0.732429,3.119266 -0.79126,2.137376 -2.171829,4.365963 -4.053892,6.643784 -1.851525,2.240862 -4.138841,4.469834 -6.702709,6.641748 -2.54031,2.151956 -5.320173,4.220979 -8.156623,6.161394 -5.668897,3.878091 -11.475322,7.182159 -15.843953,9.531603 -4.433362,2.384255 -7.334275,3.76333 -7.287922,3.839299 l 0.85827,1.406648 -0.328091,0.09507 C 63.496461,79.972732 83.215203,74.307917 94.576325,71.255257 83.215203,74.307917 63.312762,79.289058 41.221334,84.764434 l 0.530179,1.501714 c 0.04511,0.07393 3.036932,-1.141281 7.622325,-3.393464 4.492342,-2.20648 10.476341,-5.393496 16.357671,-9.18968 2.944402,-1.900504 5.861313,-3.952518 8.555397,-6.11195 2.714035,-2.175425 5.208659,-4.465127 7.284523,-6.829164 2.100457,-2.392044 3.801108,-4.892672 4.859309,-7.466481 0.538302,-1.309285 0.913688,-2.645569 1.087283,-4.001191 0.175971,-1.374182 0.143,-2.756935 -0.129514,-4.134855 -0.216627,-1.095339 -0.57858,-2.156838 -1.076257,-3.156344 -0.627557,0.774578 -1.31691,1.496975 -2.061278,2.160084 -1.909022,1.700621 -4.39471,3.202885 -7.281045,4.522873 -2.984687,1.364966 -6.358584,2.517337 -9.891741,3.489848 -7.590275,2.089243 -15.984582,3.367795 -23.112807,4.163642 -8.338141,0.930932 -15.819678,1.297779 -20.194507,1.45876 -2.7998,0.103025 -5.039055,0.146296 -6.259634,0.169549 -0.452425,0.0086 -1.250801,0.66059 -1.725643,1.304692 -0.474843,0.644102 -0.607023,1.283246 -0.607023,1.283247 z"
       id="path849" />
  </g>
</svg>
