<?xml version="1.0" encoding="UTF-8" standalone="no"?>
<svg
   xmlns:dc="http://purl.org/dc/elements/1.1/"
   xmlns:cc="http://creativecommons.org/ns#"
   xmlns:rdf="http://www.w3.org/1999/02/22-rdf-syntax-ns#"
   xmlns:svg="http://www.w3.org/2000/svg"
   xmlns="http://www.w3.org/2000/svg"
   xmlns:sodipodi="http://sodipodi.sourceforge.net/DTD/sodipodi-0.dtd"
   xmlns:inkscape="http://www.inkscape.org/namespaces/inkscape"
   width="130"
   height="130"
   viewBox="0 0 130 130"
   version="1.1"
   id="svg8"
   inkscape:version="1.0.1 (3bc2e813f5, 2020-09-07)"
   sodipodi:docname="floom_SpOcca.svg">
  <defs
     id="defs2" />
  <sodipodi:namedview
     id="base"
     pagecolor="#ffffff"
     bordercolor="#666666"
     borderopacity="1.0"
     inkscape:pageopacity="0.0"
     inkscape:pageshadow="2"
     inkscape:zoom="2.3865817"
     inkscape:cx="-5.1500108"
     inkscape:cy="74.557155"
     inkscape:document-units="px"
     inkscape:current-layer="layer1"
     inkscape:document-rotation="0"
     showgrid="false"
     units="px"
     inkscape:window-width="1264"
     inkscape:window-height="681"
     inkscape:window-x="90"
     inkscape:window-y="20"
     inkscape:window-maximized="0" />
  <metadata
     id="metadata5">
    <rdf:RDF>
      <cc:Work
         rdf:about="">
        <dc:format>image/svg+xml</dc:format>
        <dc:type
           rdf:resource="http://purl.org/dc/dcmitype/StillImage" />
        <dc:title></dc:title>
      </cc:Work>
    </rdf:RDF>
  </metadata>
  <g
     inkscape:label="Layer 1"
     inkscape:groupmode="layer"
     id="layer1">
    <g
       id="g1020"
       transform="translate(-1.1605239,-1.1605239)">
      <path
         style="font-variation-settings:normal;opacity:1;vector-effect:none;fill:#006b28;fill-opacity:1;stroke:#bcfcd4;stroke-width:2.14016;stroke-linecap:butt;stroke-linejoin:miter;stroke-miterlimit:4;stroke-dasharray:none;stroke-dashoffset:0;stroke-opacity:1;stop-color:#000000;stop-opacity:1"
         d="m 67.785426,26.203137 c 0,0 -24.472944,28.776661 -39.615555,35.315738 -3.252508,1.40454 26.649503,1.054201 26.649503,1.054201 0,0 -24.853652,24.259209 -31.92716,26.750353 -14.2327163,5.012474 25.362778,3.420698 25.362778,3.420698 0,0 -23.845354,22.239753 -33.449132,25.306283 -8.3991802,2.6819 109.17911,3.65582 105.95914,0.92243 -8.59794,-7.29865 -29.888111,-26.360488 -29.888111,-26.360488 0,0 29.375241,1.036466 24.311311,-2.893596 -5.77433,-4.481405 -31.648324,-27.541005 -31.648324,-27.541005 0,0 28.328924,2.706455 22.864874,-1.317752 C 91.280226,49.720976 67.785426,26.203137 67.785426,26.203137 Z"
         id="path10"
         sodipodi:nodetypes="cscscsscscsc" />
      <circle
         style="font-variation-settings:normal;opacity:1;vector-effect:none;fill:#dd55ff;fill-opacity:0.980392;fill-rule:evenodd;stroke:none;stroke-width:0.803892;stroke-linecap:butt;stroke-linejoin:miter;stroke-miterlimit:4;stroke-dasharray:none;stroke-dashoffset:0;stroke-opacity:1;paint-order:markers fill stroke;stop-color:#000000;stop-opacity:1"
         id="path951"
         cx="29.448296"
         cy="64.747566"
         r="2.9496648" />
      <circle
         style="font-variation-settings:normal;opacity:1;vector-effect:none;fill:#ef3400;fill-opacity:0.980392;fill-rule:evenodd;stroke:none;stroke-width:0.803892;stroke-linecap:butt;stroke-linejoin:miter;stroke-miterlimit:4;stroke-dasharray:none;stroke-dashoffset:0;stroke-opacity:1;paint-order:markers fill stroke;stop-color:#000000;stop-opacity:1"
         id="path951-6"
         cx="62.764999"
         cy="49.6124"
         r="2.9496648" />
      <circle
         style="font-variation-settings:normal;opacity:1;vector-effect:none;fill:#ff0066;fill-opacity:0.980392;fill-rule:evenodd;stroke:none;stroke-width:0.803892;stroke-linecap:butt;stroke-linejoin:miter;stroke-miterlimit:4;stroke-dasharray:none;stroke-dashoffset:0;stroke-opacity:1;paint-order:markers fill stroke;stop-color:#000000;stop-opacity:1"
         id="path951-4"
         cx="77.851814"
         cy="66.149864"
         r="2.9496648" />
      <circle
         style="font-variation-settings:normal;opacity:1;vector-effect:none;fill:#ff80b2;fill-opacity:0.980392;fill-rule:evenodd;stroke:none;stroke-width:0.803892;stroke-linecap:butt;stroke-linejoin:miter;stroke-miterlimit:4;stroke-dasharray:none;stroke-dashoffset:0;stroke-opacity:1;paint-order:markers fill stroke;stop-color:#000000;stop-opacity:1"
         id="path951-9"
         cx="92.26165"
         cy="53.674232"
         r="2.9496648" />
      <circle
         style="font-variation-settings:normal;opacity:1;vector-effect:none;fill:#ff80b2;fill-opacity:0.980392;fill-rule:evenodd;stroke:none;stroke-width:0.803892;stroke-linecap:butt;stroke-linejoin:miter;stroke-miterlimit:4;stroke-dasharray:none;stroke-dashoffset:0;stroke-opacity:1;paint-order:markers fill stroke;stop-color:#000000;stop-opacity:1"
         id="path951-0"
         cx="59.283428"
         cy="72.726166"
         r="2.9496648" />
      <circle
         style="font-variation-settings:normal;opacity:1;vector-effect:none;fill:#ef3400;fill-opacity:0.980392;fill-rule:evenodd;stroke:none;stroke-width:0.803892;stroke-linecap:butt;stroke-linejoin:miter;stroke-miterlimit:4;stroke-dasharray:none;stroke-dashoffset:0;stroke-opacity:1;paint-order:markers fill stroke;stop-color:#000000;stop-opacity:1"
         id="path951-8"
         cx="65.859734"
         cy="98.451118"
         r="2.9496648" />
      <circle
         style="font-variation-settings:normal;opacity:1;vector-effect:none;fill:#ef3400;fill-opacity:0.980392;fill-rule:evenodd;stroke:none;stroke-width:0.803892;stroke-linecap:butt;stroke-linejoin:miter;stroke-miterlimit:4;stroke-dasharray:none;stroke-dashoffset:0;stroke-opacity:1;paint-order:markers fill stroke;stop-color:#000000;stop-opacity:1"
         id="path951-87"
         cx="16.730886"
         cy="119.82409"
         r="2.9496648" />
      <circle
         style="font-variation-settings:normal;opacity:1;vector-effect:none;fill:#ff5599;fill-opacity:0.980392;fill-rule:evenodd;stroke:none;stroke-width:0.803892;stroke-linecap:butt;stroke-linejoin:miter;stroke-miterlimit:4;stroke-dasharray:none;stroke-dashoffset:0;stroke-opacity:1;paint-order:markers fill stroke;stop-color:#000000;stop-opacity:1"
         id="path951-09"
         cx="114.50501"
         cy="115.18201"
         r="2.9496648" />
      <circle
         style="font-variation-settings:normal;opacity:1;vector-effect:none;fill:#ef3400;fill-opacity:0.980392;fill-rule:evenodd;stroke:none;stroke-width:0.803892;stroke-linecap:butt;stroke-linejoin:miter;stroke-miterlimit:4;stroke-dasharray:none;stroke-dashoffset:0;stroke-opacity:1;paint-order:markers fill stroke;stop-color:#000000;stop-opacity:1"
         id="path951-69"
         cx="115.47212"
         cy="91.391258"
         r="2.9496648" />
    </g>
    <g
       id="g940"
       transform="translate(0.03555135,-0.20797948)">
      <rect
         style="fill:#ff7f2a;fill-opacity:1;stroke:#191c01;stroke-width:1.24879;stroke-miterlimit:4;stroke-dasharray:none;stroke-opacity:1;paint-order:markers fill stroke"
         id="rect845-2"
         width="30.64525"
         height="31.612356"
         x="74.037712"
         y="97.987236"
         ry="15.806178"
         rx="4.7442441" />
      <path
         style="font-variation-settings:normal;opacity:1;vector-effect:none;fill:#3d3d3d;fill-opacity:1;stroke:#2e2e2e;stroke-width:0.5;stroke-linecap:butt;stroke-linejoin:miter;stroke-miterlimit:4;stroke-dasharray:none;stroke-dashoffset:0;stroke-opacity:1;stop-color:#000000;stop-opacity:1"
         d="m 71.855773,101.51905 35.009137,0.41363 c 0,0 1.58074,-17.213165 -2.51447,-22.33636 -6.925727,-8.664217 -21.085796,-8.279633 -29.206517,-0.717164 -5.28878,4.925207 -3.28815,22.639894 -3.28815,22.639894 z"
         id="path895"
         sodipodi:nodetypes="ccssc" />
      <ellipse
         style="font-variation-settings:normal;opacity:1;vector-effect:none;fill:#ffe6d5;fill-opacity:0.980392;fill-rule:evenodd;stroke:#f5caa6;stroke-width:0.96483;stroke-linecap:butt;stroke-linejoin:miter;stroke-miterlimit:4;stroke-dasharray:none;stroke-dashoffset:0;stroke-opacity:1;paint-order:markers fill stroke;stop-color:#000000;stop-opacity:1"
         id="path837-9"
         cx="89.553757"
         cy="90.375801"
         rx="12.784134"
         ry="12.929199" />
    </g>
    <g
       id="g935"
       transform="translate(-1.1953995,-0.25898808)">
      <g
         id="g949"
         transform="translate(10.769723,0.1276272)">
        <rect
           style="fill:#2a7fff;fill-opacity:1;stroke:#191c01;stroke-width:1.24879;stroke-miterlimit:4;stroke-dasharray:none;stroke-opacity:1;paint-order:markers fill stroke"
           id="rect845"
           width="30.64525"
           height="31.612356"
           x="23.071373"
           y="97.73175"
           ry="15.806178"
           rx="4.7442441" />
        <circle
           style="font-variation-settings:normal;opacity:1;vector-effect:none;fill:#ffe6d5;fill-opacity:0.980392;fill-rule:evenodd;stroke:#f5caa6;stroke-width:1.00157;stroke-linecap:butt;stroke-linejoin:miter;stroke-miterlimit:4;stroke-dasharray:none;stroke-dashoffset:0;stroke-opacity:1;paint-order:markers fill stroke;stop-color:#000000;stop-opacity:1"
           id="path837"
           cx="38.297287"
           cy="90.714287"
           r="13.346025" />
        <path
           id="path926"
           style="fill:#2a7fff;fill-opacity:1;stroke:#2e2e2e;stroke-width:0.5;stroke-miterlimit:4;stroke-dasharray:none;stroke-opacity:1;paint-order:markers fill stroke"
           d="m 44.768656,81.629362 c -0.298205,0.155053 -0.610246,0.280433 -0.922391,0.404141 -0.759748,0.270705 -1.548729,0.451907 -2.334045,0.631464 -0.466584,0.105561 -0.936663,0.196873 -1.401969,0.308126 -0.504137,0.120537 -1.00386,0.261197 -1.50534,0.392203 -0.769483,0.207818 -1.544182,0.393808 -2.322303,0.566077 -0.659146,0.157077 -1.325844,0.2785 -1.98727,0.425084 -0.37077,0.08537 -0.740929,0.17766 -1.118018,0.231581 -0.211801,0.03029 -0.278355,0.03237 -0.493281,0.0499 -0.510763,0.01621 -1.020465,0.0459 -1.530297,0.08018 -0.43666,0.02928 -0.874319,0.03662 -1.311804,0.04103 -0.247533,0.002 -0.495077,0.0018 -0.742615,0.001 0,0 -0.152592,0.110854 -0.152592,0.110854 v 0 c 0.248802,-5.07e-4 0.497605,-0.0013 0.746398,-0.0035 0.437944,-0.0049 0.876099,-0.01159 1.313234,-0.04078 0.510142,-0.03499 1.020071,-0.06692 1.531318,-0.08067 0.214104,-0.01675 0.282916,-0.0187 0.49404,-0.04858 0.378654,-0.05359 0.750079,-0.147318 1.122173,-0.233455 0.661068,-0.147224 1.327828,-0.267264 1.98669,-0.424653 0.78054,-0.173274 1.557318,-0.361481 2.329142,-0.570472 0.50098,-0.13114 1.000277,-0.271622 1.504001,-0.391971 0.464983,-0.111093 0.934658,-0.202593 1.401064,-0.307321 0.783138,-0.17843 1.569722,-0.358467 2.328686,-0.623926 0.309624,-0.121705 0.619288,-0.244479 0.91551,-0.396597 0,0 0.149669,-0.119721 0.149669,-0.119721 z m -1.650438,-1.148139 c -0.176936,0.156848 -0.379935,0.255741 -0.580985,0.360158 -0.317209,0.145099 -0.633615,0.295381 -0.962653,0.412508 -0.241634,0.08601 -0.425877,0.134766 -0.673641,0.20614 -0.809543,0.214576 -1.625033,0.406818 -2.444497,0.579501 -0.540643,0.110353 -1.078584,0.235107 -1.625435,0.312079 -0.329183,0.04633 -0.439902,0.05244 -0.768971,0.08248 -0.601708,0.06025 -1.207431,0.03435 -1.810347,0.06396 -0.118243,0.0058 -0.236126,0.01746 -0.354189,0.0262 -0.486021,0.04789 -0.971264,0.103444 -1.458492,0.13789 -0.23747,0.01578 -0.475485,0.01856 -0.713387,0.01936 -0.100127,-0.0013 -0.199845,-5.17e-4 -0.29981,0.0049 0,0 -0.152412,0.112141 -0.152412,0.112141 v 0 c 0.09987,-0.0067 0.199401,-0.0078 0.299522,-0.006 0.238921,-7.54e-4 0.477947,-0.0039 0.716418,-0.01999 0.489586,-0.03608 0.977146,-0.09342 1.465483,-0.142987 0.117839,-0.0089 0.235492,-0.02082 0.353518,-0.02681 0.603482,-0.03061 1.209881,-0.0034 1.812182,-0.06386 0.327323,-0.02967 0.442866,-0.03618 0.770256,-0.08198 0.547515,-0.0766 1.085963,-0.20172 1.627166,-0.312284 0.818937,-0.171522 1.633406,-0.364729 2.442839,-0.576642 0.237752,-0.06781 0.439914,-0.121386 0.672491,-0.203174 0.32833,-0.115461 0.6436,-0.265204 0.960382,-0.408231 0.312169,-0.16096 0.632714,-0.320706 0.900885,-0.550666 0,0 -0.176323,0.07533 -0.176323,0.07533 z M 42.092323,79.16454 c -0.309556,0.103162 -0.629646,0.163934 -0.948463,0.229535 -0.437087,0.09388 -0.876177,0.178726 -1.31479,0.265377 -0.623264,0.119363 -1.258622,0.141736 -1.891196,0.160142 -0.631647,0.0069 -1.256945,0.09666 -1.878797,0.199172 -0.466406,0.07927 -0.926784,0.188298 -1.393652,0.264708 -0.240067,0.03343 -0.124499,0.01867 -0.34663,0.04485 0,0 -0.149256,0.11116 -0.149256,0.11116 v 0 c 0.223722,-0.02679 0.107385,-0.01179 0.34894,-0.04556 0.467965,-0.07656 0.929427,-0.185344 1.396543,-0.266834 0.621927,-0.103664 1.247275,-0.194777 1.879202,-0.202489 0.632042,-0.01822 1.266982,-0.03824 1.890081,-0.155608 0.437851,-0.08587 0.876271,-0.169624 1.312448,-0.263405 0.317222,-0.0653 0.635766,-0.124584 0.944793,-0.223907 0,0 0.150777,-0.117139 0.150777,-0.117139 z" />
      </g>
    </g>
  </g>
</svg>
