<?xml version="1.0" encoding="UTF-8" standalone="no"?>
<svg
   xmlns:dc="http://purl.org/dc/elements/1.1/"
   xmlns:cc="http://creativecommons.org/ns#"
   xmlns:rdf="http://www.w3.org/1999/02/22-rdf-syntax-ns#"
   xmlns:svg="http://www.w3.org/2000/svg"
   xmlns="http://www.w3.org/2000/svg"
   xmlns:sodipodi="http://sodipodi.sourceforge.net/DTD/sodipodi-0.dtd"
   xmlns:inkscape="http://www.inkscape.org/namespaces/inkscape"
   width="100"
   height="100"
   viewBox="0 0 100 100"
   version="1.1"
   id="svg8"
   sodipodi:docname="floom_houseWarming.svg"
   inkscape:version="1.0.1 (3bc2e813f5, 2020-09-07)">
  <sodipodi:namedview
     pagecolor="#ffffff"
     bordercolor="#666666"
     borderopacity="1"
     objecttolerance="10"
     gridtolerance="10"
     guidetolerance="10"
     inkscape:pageopacity="0"
     inkscape:pageshadow="2"
     inkscape:window-width="968"
     inkscape:window-height="617"
     id="namedview55"
     showgrid="false"
     showguides="false"
     inkscape:zoom="2.0375258"
     inkscape:cx="-16.090576"
     inkscape:cy="14.543355"
     inkscape:window-x="222"
     inkscape:window-y="28"
     inkscape:window-maximized="0"
     inkscape:current-layer="svg8" />
  <defs
     id="defs2" />
  <metadata
     id="metadata5">
    <rdf:RDF>
      <cc:Work
         rdf:about="">
        <dc:format>image/svg+xml</dc:format>
        <dc:type
           rdf:resource="http://purl.org/dc/dcmitype/StillImage" />
        <dc:title />
      </cc:Work>
    </rdf:RDF>
  </metadata>
  <g
     id="layer1"
     style="fill:#ffeeaa;opacity:0"
     transform="matrix(1.1813182,0,0,1.0600239,-1.245699,1.2304859)">
    <path
       id="path10"
       style="fill:#ffeeaa;stroke-width:0.659315;paint-order:markers fill stroke"
       d="M 45.483619,7.9229512 C 43.375247,7.934143 11.044199,44.875983 12.115086,45.929626 c 0,0 5.214251,0.05424 11.901094,0.151152 l 0,36.533672 c 1.64179,0.238272 0.978235,-0.228381 1.116384,-0.227687 l 45.307132,0.227687 c -1.485601,0.227688 0,0 0,0 L 70.092765,46.724272 c 5.237164,-0.158107 8.25873,0.03245 8.485435,-2.133373 C 78.741622,43.029652 47.591991,7.9117626 45.483619,7.9229512 Z M 29.633753,52.951912 h 8.591405 c 0.142723,0 0.259017,0.117304 0.259017,0.263778 v 9.005286 c 0,0.146474 -0.116294,0.265824 -0.259017,0.265824 h -8.591405 c -0.142723,0 -0.259017,-0.11935 -0.259017,-0.265824 V 53.21569 c 0,-0.146474 0.116293,-0.263778 0.259017,-0.263778 z m 27.76466,0 h 8.698996 c 0.142724,0 0.257024,0.117303 0.257024,0.263778 v 9.193407 c 0,0.146475 -0.1143,0.263779 -0.257024,0.263779 h -8.698996 c -0.142724,0 -0.257025,-0.117304 -0.257025,-0.263779 V 53.21569 c 0,-0.146475 0.114301,-0.263778 0.257025,-0.263778 z M 43.987296,65.10414 h 8.3025 c 0.252519,0 0.456269,0.207059 0.456268,0.466213 v 16.264315 c 0,0.259154 -0.203749,0.468259 -0.456268,0.468259 h -8.3025 c -0.25252,0 -0.45627,-0.209105 -0.45627,-0.468259 V 65.570353 c 0,-0.259154 0.20375,-0.466213 0.45627,-0.466213 z"
       sodipodi:nodetypes="ssccscccsssssssssssssssssssssscssssss" />
  </g>
  <g
     id="layer1-7"
     style="fill:#d38d5f"
     transform="translate(7.3807269,3.9845361)">
    <path
       id="path10-7"
       style="fill:#d38d5f;stroke-width:0.659315;paint-order:markers fill stroke"
       d="M 45.1042,8.9678476 C 42.995828,8.9790393 9.450522,43.40779 10.521409,44.461433 c 0.270929,0.266564 4.867319,0.44087 11.554163,0.537781 v 37.016959 c 0,0.141779 0.110905,0.255599 0.249055,0.255599 h 49.221252 c 0.13815,0 0.249055,-0.113821 0.249055,-0.255599 V 44.676136 C 77.032097,44.518029 80.574061,44.32196 80.800765,44.089279 81.83825,43.024449 47.212572,8.956659 45.1042,8.9678476 Z M 29.254335,52.836921 h 8.591405 c 0.142723,0 0.259017,0.117304 0.259017,0.263778 v 9.005286 c 0,0.146474 -0.116294,0.265824 -0.259017,0.265824 h -8.591405 c -0.142724,0 -0.259017,-0.11935 -0.259017,-0.265824 v -9.005286 c 0,-0.146474 0.116292,-0.263778 0.259017,-0.263778 z m 27.764659,0 h 8.698996 c 0.142724,0 0.257025,0.117303 0.257025,0.263778 v 9.193407 c 0,0.146475 -0.114301,0.263779 -0.257025,0.263779 h -8.698996 c -0.142724,0 -0.257024,-0.117304 -0.257024,-0.263779 v -9.193407 c 0,-0.146475 0.1143,-0.263778 0.257024,-0.263778 z M 43.607877,64.989149 h 8.3025 c 0.252519,0 0.456269,0.207059 0.456268,0.466213 v 16.264315 c 0,0.259154 -0.203749,0.468259 -0.456268,0.468259 h -8.3025 c -0.25252,0 -0.456269,-0.209105 -0.456269,-0.468259 V 65.455362 c 0,-0.259154 0.203749,-0.466213 0.456269,-0.466213 z" />
  </g>
</svg>
