<?xml version="1.0" encoding="UTF-8" standalone="no"?>
<svg
   xmlns:dc="http://purl.org/dc/elements/1.1/"
   xmlns:cc="http://creativecommons.org/ns#"
   xmlns:rdf="http://www.w3.org/1999/02/22-rdf-syntax-ns#"
   xmlns:svg="http://www.w3.org/2000/svg"
   xmlns="http://www.w3.org/2000/svg"
   xmlns:sodipodi="http://sodipodi.sourceforge.net/DTD/sodipodi-0.dtd"
   xmlns:inkscape="http://www.inkscape.org/namespaces/inkscape"
   width="200"
   height="200"
   viewBox="0 0 200 200"
   version="1.1"
   id="svg51"
   inkscape:version="1.0.1 (3bc2e813f5, 2020-09-07)"
   sodipodi:docname="floom_FooterFlowe.svg">
  <defs
     id="defs45" />
  <sodipodi:namedview
     id="base"
     pagecolor="#ffffff"
     bordercolor="#666666"
     borderopacity="1.0"
     inkscape:pageopacity="0.0"
     inkscape:pageshadow="2"
     inkscape:zoom="0.7"
     inkscape:cx="15.437632"
     inkscape:cy="223.59242"
     inkscape:document-units="px"
     inkscape:current-layer="layer1"
     inkscape:document-rotation="0"
     showgrid="false"
     units="px"
     viewbox-width="100"
     inkscape:window-width="1262"
     inkscape:window-height="681"
     inkscape:window-x="138"
     inkscape:window-y="140"
     inkscape:window-maximized="0" />
  <metadata
     id="metadata48">
    <rdf:RDF>
      <cc:Work
         rdf:about="">
        <dc:format>image/svg+xml</dc:format>
        <dc:type
           rdf:resource="http://purl.org/dc/dcmitype/StillImage" />
        <dc:title></dc:title>
      </cc:Work>
    </rdf:RDF>
  </metadata>
  <g
     inkscape:label="Layer 1"
     inkscape:groupmode="layer"
     id="layer1">
    <path
       style="fill:#000000;stroke-width:0.989691"
       id="path77"
       d="" />
    <g
       id="g950">
      <path
         style="font-variation-settings:normal;vector-effect:none;fill:#8d72f4;fill-opacity:1;stroke:#cbbefa;stroke-width:1.727;stroke-linecap:butt;stroke-linejoin:miter;stroke-miterlimit:4;stroke-dasharray:none;stroke-dashoffset:0;stroke-opacity:1;stop-color:#000000"
         d="m 48.15556,77.27667 c 0,0 -12.353003,-0.591904 -17.677673,2.020305 -8.23036,4.037703 -20.203049,15.657362 -19.192899,19.697972 1.010159,4.040613 9.303069,14.526683 16.667519,18.182753 6.51232,3.23303 21.718282,2.0203 21.718282,2.0203 0,0 -11.00294,12.09927 -13.131983,19.69798 -2.182159,7.7883 -2.525379,23.2335 1.010153,24.24366 3.535534,1.01015 22.728432,2.52538 25.75889,0 3.030457,-2.52539 16.16244,-12.62691 16.16244,-12.62691 0,0 0.933194,18.91531 5.555839,26.76904 3.26982,5.55532 13.433107,12.62691 16.968642,12.62691 3.53554,0 16.57226,-9.28775 17.88162,-16.66752 1.24784,-7.03302 3.03046,-21.2132 3.03046,-21.2132 0,0 10.5266,9.72162 17.1726,11.61675 8.26349,2.35637 25.75888,2.52538 25.75888,-1.01015 0,-3.53553 4.54569,-12.12183 0,-23.23351 -4.54568,-11.11168 -13.63705,-18.68782 -13.63705,-18.68782 0,0 15.73079,-1.27049 22.72843,-4.54569 7.04895,-3.29922 17.67767,-10.10152 18.18274,-14.64721 0.50508,-4.545683 -6.56599,-17.172592 -16.66751,-21.213203 -10.10153,-4.04061 -21.71828,-4.04061 -21.71828,-4.04061 0,0 9.51571,-10.229559 11.61675,-16.667517 2.35106,-7.204082 3.53554,-18.182746 0.50508,-22.728432 -3.03046,-4.545687 -16.53971,-5.912982 -26.49856,-0.474439 -7.00893,3.827592 -14.9177,12.091193 -14.9177,12.091193 0,0 -0.50784,-14.073334 -3.53553,-20.203051 C 118.04479,20.485891 115.33071,11.111678 104.21903,9.0913731 93.107349,7.0710681 83.337585,19.687461 81.490594,28.789348 80.855325,31.919925 80.480442,47.47717 80.480442,47.47717 c 0,0 -9.455721,-9.862324 -15.657365,-12.121831 C 56.907419,32.471348 44.823979,31.70251 37.247835,35.238044 29.671688,38.773577 34.644498,51.55814 37.548959,59.093924 40.072426,65.641199 48.15556,77.27667 48.15556,77.27667 Z"
         id="path914"
         sodipodi:nodetypes="cssscssscssscssscssscssscssscsssc" />
      <ellipse
         style="font-variation-settings:normal;vector-effect:none;fill:#ff96cb;fill-opacity:0.980392;fill-rule:evenodd;stroke:#ffd2fc;stroke-width:6.35241;stroke-linecap:butt;stroke-linejoin:miter;stroke-miterlimit:4;stroke-dasharray:none;stroke-dashoffset:0;stroke-opacity:1;paint-order:markers fill stroke;stop-color:#000000"
         id="path89"
         cx="102.02541"
         cy="99.500031"
         rx="38.92926"
         ry="38.929268" />
    </g>
  </g>
</svg>
