<?xml version="1.0" encoding="UTF-8" standalone="no"?>
<svg
   xmlns:dc="http://purl.org/dc/elements/1.1/"
   xmlns:cc="http://creativecommons.org/ns#"
   xmlns:rdf="http://www.w3.org/1999/02/22-rdf-syntax-ns#"
   xmlns:svg="http://www.w3.org/2000/svg"
   xmlns="http://www.w3.org/2000/svg"
   xmlns:sodipodi="http://sodipodi.sourceforge.net/DTD/sodipodi-0.dtd"
   xmlns:inkscape="http://www.inkscape.org/namespaces/inkscape"
   width="100"
   height="100"
   viewBox="0 0 100 100"
   version="1.1"
   id="svg1397"
   sodipodi:docname="floom_heartzWed.svg"
   inkscape:version="1.0.1 (3bc2e813f5, 2020-09-07)">
  <sodipodi:namedview
     pagecolor="#ffffff"
     bordercolor="#666666"
     borderopacity="1"
     objecttolerance="10"
     gridtolerance="10"
     guidetolerance="10"
     inkscape:pageopacity="0"
     inkscape:pageshadow="2"
     inkscape:window-width="1280"
     inkscape:window-height="697"
     id="namedview18"
     showgrid="false"
     inkscape:zoom="4.88"
     inkscape:cx="50"
     inkscape:cy="58.196721"
     inkscape:window-x="-8"
     inkscape:window-y="-8"
     inkscape:window-maximized="1"
     inkscape:current-layer="svg1397" />
  <defs
     id="defs1391" />
  <metadata
     id="metadata1394">
    <rdf:RDF>
      <cc:Work
         rdf:about="">
        <dc:format>image/svg+xml</dc:format>
        <dc:type
           rdf:resource="http://purl.org/dc/dcmitype/StillImage" />
        <dc:title />
      </cc:Work>
    </rdf:RDF>
  </metadata>
  <g
     id="layer1"
     transform="translate(0,-11.065574)">
    <g
       id="g1979"
       transform="rotate(-45,1.747655,-9.0975268)">
      <path
         id="path1981"
         style="color:#000000;font-style:normal;font-variant:normal;font-weight:normal;font-stretch:normal;font-size:medium;line-height:normal;font-family:sans-serif;font-variant-ligatures:normal;font-variant-position:normal;font-variant-caps:normal;font-variant-numeric:normal;font-variant-alternates:normal;font-variant-east-asian:normal;font-feature-settings:normal;font-variation-settings:normal;text-indent:0;text-align:start;text-decoration:none;text-decoration-line:none;text-decoration-style:solid;text-decoration-color:#000000;letter-spacing:normal;word-spacing:normal;text-transform:none;writing-mode:lr-tb;direction:ltr;text-orientation:mixed;dominant-baseline:auto;baseline-shift:baseline;text-anchor:start;white-space:normal;shape-padding:0;shape-margin:0;inline-size:0;clip-rule:nonzero;display:inline;overflow:visible;visibility:visible;isolation:auto;mix-blend-mode:normal;color-interpolation:sRGB;color-interpolation-filters:linearRGB;solid-color:#000000;solid-opacity:1;vector-effect:none;fill:#c83737;fill-opacity:1;fill-rule:nonzero;stroke:none;stroke-width:0.260787;stroke-linecap:butt;stroke-linejoin:miter;stroke-miterlimit:4;stroke-dasharray:none;stroke-dashoffset:0;stroke-opacity:1;paint-order:markers fill stroke;color-rendering:auto;image-rendering:auto;shape-rendering:auto;text-rendering:auto;enable-background:accumulate;stop-color:#000000;stop-opacity:1"
         d="m -48.306601,54.259666 c -0.775987,-0.775986 -1.849147,-1.254009 -3.03835,-1.254009 -2.378403,-10e-7 -4.29374,1.915335 -4.293739,4.29374 l -1e-6,1.336874 c 1e-6,8.58748 1e-6,8.58748 1e-6,8.58748 0,0 0,0 8.587479,0 h 1.281631 c 2.378403,0 4.29236,-1.913954 4.29236,-4.29236 0,-2.378403 -1.915336,-4.293739 -4.29374,-4.293739 h -1.281631 l 0.0014,-1.338255 c 1e-6,-1.189203 -0.479403,-2.263744 -1.25539,-3.039731 z" />
      <path
         id="path1981-7"
         style="color:#000000;font-style:normal;font-variant:normal;font-weight:normal;font-stretch:normal;font-size:medium;line-height:normal;font-family:sans-serif;font-variant-ligatures:normal;font-variant-position:normal;font-variant-caps:normal;font-variant-numeric:normal;font-variant-alternates:normal;font-variant-east-asian:normal;font-feature-settings:normal;font-variation-settings:normal;text-indent:0;text-align:start;text-decoration:none;text-decoration-line:none;text-decoration-style:solid;text-decoration-color:#000000;letter-spacing:normal;word-spacing:normal;text-transform:none;writing-mode:lr-tb;direction:ltr;text-orientation:mixed;dominant-baseline:auto;baseline-shift:baseline;text-anchor:start;white-space:normal;shape-padding:0;shape-margin:0;inline-size:0;clip-rule:nonzero;display:inline;overflow:visible;visibility:visible;isolation:auto;mix-blend-mode:normal;color-interpolation:sRGB;color-interpolation-filters:linearRGB;solid-color:#000000;solid-opacity:1;vector-effect:none;fill:#c83737;fill-opacity:1;fill-rule:nonzero;stroke:none;stroke-width:0.141833;stroke-linecap:butt;stroke-linejoin:miter;stroke-miterlimit:4;stroke-dasharray:none;stroke-dashoffset:0;stroke-opacity:1;paint-order:markers fill stroke;color-rendering:auto;image-rendering:auto;shape-rendering:auto;text-rendering:auto;enable-background:accumulate;stop-color:#000000;stop-opacity:1"
         d="m -36.432894,73.793938 c -0.422033,-0.422032 -1.005689,-0.682013 -1.652456,-0.682013 -1.293533,-10e-7 -2.335221,1.041686 -2.33522,2.33522 l -1e-6,0.727081 c 1e-6,4.670441 1e-6,4.670441 1e-6,4.670441 0,0 0,0 4.670441,10e-7 h 0.697035 c 1.293534,0 2.33447,-1.040936 2.33447,-2.334471 0,-1.293533 -1.041686,-2.335219 -2.33522,-2.33522 h -0.697036 l 7.62e-4,-0.727832 c 0,-0.646767 -0.260732,-1.231174 -0.682765,-1.653207 z" />
      <path
         id="path1981-5"
         style="color:#000000;font-style:normal;font-variant:normal;font-weight:normal;font-stretch:normal;font-size:medium;line-height:normal;font-family:sans-serif;font-variant-ligatures:normal;font-variant-position:normal;font-variant-caps:normal;font-variant-numeric:normal;font-variant-alternates:normal;font-variant-east-asian:normal;font-feature-settings:normal;font-variation-settings:normal;text-indent:0;text-align:start;text-decoration:none;text-decoration-line:none;text-decoration-style:solid;text-decoration-color:#000000;letter-spacing:normal;word-spacing:normal;text-transform:none;writing-mode:lr-tb;direction:ltr;text-orientation:mixed;dominant-baseline:auto;baseline-shift:baseline;text-anchor:start;white-space:normal;shape-padding:0;shape-margin:0;inline-size:0;clip-rule:nonzero;display:inline;overflow:visible;visibility:visible;isolation:auto;mix-blend-mode:normal;color-interpolation:sRGB;color-interpolation-filters:linearRGB;solid-color:#000000;solid-opacity:1;vector-effect:none;fill:#c83737;fill-opacity:1;fill-rule:nonzero;stroke:none;stroke-width:0.294303;stroke-linecap:butt;stroke-linejoin:miter;stroke-miterlimit:4;stroke-dasharray:none;stroke-dashoffset:0;stroke-opacity:1;paint-order:markers fill stroke;color-rendering:auto;image-rendering:auto;shape-rendering:auto;text-rendering:auto;enable-background:accumulate;stop-color:#000000;stop-opacity:1"
         d="m -30.414915,95.302888 c -0.859873,-0.859872 -2.061307,-1.377307 -3.403568,-1.352804 -2.68452,0.049 -4.885838,2.250323 -4.934843,4.934841 l -0.02755,1.508945 c -0.17694,9.69275 -0.17694,9.69275 -0.17694,9.69275 0,0 0,0 9.692745,-0.17695 l 1.446586,-0.0264 c 2.68452,-0.049 4.884254,-2.24873 4.93326,-4.93326 0.04901,-2.68452 -2.073382,-4.80691 -4.757903,-4.7579 l -1.446586,0.0264 0.02915,-1.510529 c 0.0245,-1.342257 -0.494462,-2.545221 -1.354335,-3.405093 z" />
      <path
         id="path1981-7-5"
         style="color:#000000;font-style:normal;font-variant:normal;font-weight:normal;font-stretch:normal;font-size:medium;line-height:normal;font-family:sans-serif;font-variant-ligatures:normal;font-variant-position:normal;font-variant-caps:normal;font-variant-numeric:normal;font-variant-alternates:normal;font-variant-east-asian:normal;font-feature-settings:normal;font-variation-settings:normal;text-indent:0;text-align:start;text-decoration:none;text-decoration-line:none;text-decoration-style:solid;text-decoration-color:#000000;letter-spacing:normal;word-spacing:normal;text-transform:none;writing-mode:lr-tb;direction:ltr;text-orientation:mixed;dominant-baseline:auto;baseline-shift:baseline;text-anchor:start;white-space:normal;shape-padding:0;shape-margin:0;inline-size:0;clip-rule:nonzero;display:inline;overflow:visible;visibility:visible;isolation:auto;mix-blend-mode:normal;color-interpolation:sRGB;color-interpolation-filters:linearRGB;solid-color:#000000;solid-opacity:1;vector-effect:none;fill:#c83737;fill-opacity:1;fill-rule:nonzero;stroke:none;stroke-width:0.105868;stroke-linecap:butt;stroke-linejoin:miter;stroke-miterlimit:4;stroke-dasharray:none;stroke-dashoffset:0;stroke-opacity:1;paint-order:markers fill stroke;color-rendering:auto;image-rendering:auto;shape-rendering:auto;text-rendering:auto;enable-background:accumulate;stop-color:#000000;stop-opacity:1"
         d="m -11.313885,116.00356 c -0.287815,-0.28781 -0.707702,-0.44326 -1.192438,-0.39961 -0.96947,0.0873 -1.820503,0.93834 -1.907816,1.90782 l -0.04908,0.54493 c -0.315256,3.50037 -0.315256,3.50037 -0.315256,3.50037 0,0 0,0 3.500378,-0.31525 l 0.52241,-0.047 c 0.9694709,-0.0873 1.81989,-0.93774 1.9072045,-1.90721 0.087314,-0.96947 -0.6230899,-1.67987 -1.5925605,-1.59256 l -0.522411,0.047 0.0497,-0.54554 c 0.04366,-0.48474 -0.112307,-0.90514 -0.400123,-1.19295 z" />
      <path
         id="path1981-8"
         style="color:#000000;font-style:normal;font-variant:normal;font-weight:normal;font-stretch:normal;font-size:medium;line-height:normal;font-family:sans-serif;font-variant-ligatures:normal;font-variant-position:normal;font-variant-caps:normal;font-variant-numeric:normal;font-variant-alternates:normal;font-variant-east-asian:normal;font-feature-settings:normal;font-variation-settings:normal;text-indent:0;text-align:start;text-decoration:none;text-decoration-line:none;text-decoration-style:solid;text-decoration-color:#000000;letter-spacing:normal;word-spacing:normal;text-transform:none;writing-mode:lr-tb;direction:ltr;text-orientation:mixed;dominant-baseline:auto;baseline-shift:baseline;text-anchor:start;white-space:normal;shape-padding:0;shape-margin:0;inline-size:0;clip-rule:nonzero;display:inline;overflow:visible;visibility:visible;isolation:auto;mix-blend-mode:normal;color-interpolation:sRGB;color-interpolation-filters:linearRGB;solid-color:#000000;solid-opacity:1;vector-effect:none;fill:#c83737;fill-opacity:1;fill-rule:nonzero;stroke:none;stroke-width:0.293423;stroke-linecap:butt;stroke-linejoin:miter;stroke-miterlimit:4;stroke-dasharray:none;stroke-dashoffset:0;stroke-opacity:1;paint-order:markers fill stroke;color-rendering:auto;image-rendering:auto;shape-rendering:auto;text-rendering:auto;enable-background:accumulate;stop-color:#000000;stop-opacity:1"
         d="m 4.5667185,93.919028 c -0.8934272,-0.893426 -2.1135881,-1.459209 -3.4519671,-1.49001 -2.6767547,-0.0616 -4.7827464,2.044386 -4.7211424,4.721143 l 0.034624,1.504574 c 0.2224262,9.664715 0.2224262,9.664715 0.2224262,9.664715 0,0 0,0 9.66471,0.22242 l 1.4424014,0.0332 c 2.6767544,0.0616 4.7812284,-2.04288 4.7196264,-4.71963 -0.0616,-2.67676 -2.266812,-4.881964 -4.9435677,-4.943567 L 6.091428,98.878678 6.0583415,97.372586 C 6.0275412,96.034207 5.460167,94.812456 4.566741,93.919029 Z" />
      <path
         id="path1981-7-2"
         style="color:#000000;font-style:normal;font-variant:normal;font-weight:normal;font-stretch:normal;font-size:medium;line-height:normal;font-family:sans-serif;font-variant-ligatures:normal;font-variant-position:normal;font-variant-caps:normal;font-variant-numeric:normal;font-variant-alternates:normal;font-variant-east-asian:normal;font-feature-settings:normal;font-variation-settings:normal;text-indent:0;text-align:start;text-decoration:none;text-decoration-line:none;text-decoration-style:solid;text-decoration-color:#000000;letter-spacing:normal;word-spacing:normal;text-transform:none;writing-mode:lr-tb;direction:ltr;text-orientation:mixed;dominant-baseline:auto;baseline-shift:baseline;text-anchor:start;white-space:normal;shape-padding:0;shape-margin:0;inline-size:0;clip-rule:nonzero;display:inline;overflow:visible;visibility:visible;isolation:auto;mix-blend-mode:normal;color-interpolation:sRGB;color-interpolation-filters:linearRGB;solid-color:#000000;solid-opacity:1;vector-effect:none;fill:#c83737;fill-opacity:1;fill-rule:nonzero;stroke:none;stroke-width:0.141833;stroke-linecap:butt;stroke-linejoin:miter;stroke-miterlimit:4;stroke-dasharray:none;stroke-dashoffset:0;stroke-opacity:1;paint-order:markers fill stroke;color-rendering:auto;image-rendering:auto;shape-rendering:auto;text-rendering:auto;enable-background:accumulate;stop-color:#000000;stop-opacity:1"
         d="m -67.862028,64.506185 c -0.422033,-0.422032 -1.005688,-0.682012 -1.652455,-0.682012 -1.293533,-1e-6 -2.335222,1.041685 -2.33522,2.33522 l -10e-7,0.727081 c 0,4.670437 0,4.670437 0,4.670437 0,0 0,0 4.670441,0 h 0.697035 c 1.293534,0 2.33447,-1.040932 2.334471,-2.334466 0,-1.293533 -1.041687,-2.33522 -2.33522,-2.33522 h -0.697036 l 7.62e-4,-0.727832 c 0,-0.646767 -0.260732,-1.231175 -0.682766,-1.653208 z" />
      <path
         id="path1981-5-7"
         style="color:#000000;font-style:normal;font-variant:normal;font-weight:normal;font-stretch:normal;font-size:medium;line-height:normal;font-family:sans-serif;font-variant-ligatures:normal;font-variant-position:normal;font-variant-caps:normal;font-variant-numeric:normal;font-variant-alternates:normal;font-variant-east-asian:normal;font-feature-settings:normal;font-variation-settings:normal;text-indent:0;text-align:start;text-decoration:none;text-decoration-line:none;text-decoration-style:solid;text-decoration-color:#000000;letter-spacing:normal;word-spacing:normal;text-transform:none;writing-mode:lr-tb;direction:ltr;text-orientation:mixed;dominant-baseline:auto;baseline-shift:baseline;text-anchor:start;white-space:normal;shape-padding:0;shape-margin:0;inline-size:0;clip-rule:nonzero;display:inline;overflow:visible;visibility:visible;isolation:auto;mix-blend-mode:normal;color-interpolation:sRGB;color-interpolation-filters:linearRGB;solid-color:#000000;solid-opacity:1;vector-effect:none;fill:#c83737;fill-opacity:1;fill-rule:nonzero;stroke:none;stroke-width:0.294303;stroke-linecap:butt;stroke-linejoin:miter;stroke-miterlimit:4;stroke-dasharray:none;stroke-dashoffset:0;stroke-opacity:1;paint-order:markers fill stroke;color-rendering:auto;image-rendering:auto;shape-rendering:auto;text-rendering:auto;enable-background:accumulate;stop-color:#000000;stop-opacity:1"
         d="m -13.801104,68.985204 c -0.859873,-0.85987 -2.061307,-1.3773 -3.403568,-1.3528 -2.68452,0.049 -4.885838,2.25032 -4.934843,4.93484 l -0.02755,1.50895 c -0.176941,9.69275 -0.176941,9.69275 -0.176941,9.69275 0,0 0,0 9.692745,-0.17695 l 1.446587,-0.0264 c 2.6845197,-0.049 4.8842527,-2.24873 4.9332597,-4.93326 0.04901,-2.68452 -2.073383,-4.80691 -4.7579027,-4.7579 l -1.446586,0.0264 0.02915,-1.51053 c 0.0245,-1.34226 -0.494462,-2.54522 -1.354335,-3.4051 z" />
      <path
         id="path1981-5-7-2"
         style="color:#000000;font-style:normal;font-variant:normal;font-weight:normal;font-stretch:normal;font-size:medium;line-height:normal;font-family:sans-serif;font-variant-ligatures:normal;font-variant-position:normal;font-variant-caps:normal;font-variant-numeric:normal;font-variant-alternates:normal;font-variant-east-asian:normal;font-feature-settings:normal;font-variation-settings:normal;text-indent:0;text-align:start;text-decoration:none;text-decoration-line:none;text-decoration-style:solid;text-decoration-color:#000000;letter-spacing:normal;word-spacing:normal;text-transform:none;writing-mode:lr-tb;direction:ltr;text-orientation:mixed;dominant-baseline:auto;baseline-shift:baseline;text-anchor:start;white-space:normal;shape-padding:0;shape-margin:0;inline-size:0;clip-rule:nonzero;display:inline;overflow:visible;visibility:visible;isolation:auto;mix-blend-mode:normal;color-interpolation:sRGB;color-interpolation-filters:linearRGB;solid-color:#000000;solid-opacity:1;vector-effect:none;fill:#c83737;fill-opacity:1;fill-rule:nonzero;stroke:none;stroke-width:0.294303;stroke-linecap:butt;stroke-linejoin:miter;stroke-miterlimit:4;stroke-dasharray:none;stroke-dashoffset:0;stroke-opacity:1;paint-order:markers fill stroke;color-rendering:auto;image-rendering:auto;shape-rendering:auto;text-rendering:auto;enable-background:accumulate;stop-color:#000000;stop-opacity:1"
         d="m -55.974973,78.329115 c -0.859873,-0.85987 -2.061307,-1.3773 -3.403568,-1.3528 -2.68452,0.049 -4.885839,2.25032 -4.934844,4.93484 l -0.02755,1.50895 c -0.176941,9.69275 -0.176941,9.69275 -0.176941,9.69275 0,0 0,0 9.692745,-0.17695 l 1.446587,-0.0264 c 2.68452,-0.049 4.884253,-2.24873 4.93326,-4.93326 0.04901,-2.68452 -2.073383,-4.80691 -4.757903,-4.7579 l -1.446585,0.0264 0.02915,-1.51053 c 0.0245,-1.34226 -0.494462,-2.54522 -1.354335,-3.4051 z" />
      <path
         id="path1981-7-5-5"
         style="color:#000000;font-style:normal;font-variant:normal;font-weight:normal;font-stretch:normal;font-size:medium;line-height:normal;font-family:sans-serif;font-variant-ligatures:normal;font-variant-position:normal;font-variant-caps:normal;font-variant-numeric:normal;font-variant-alternates:normal;font-variant-east-asian:normal;font-feature-settings:normal;font-variation-settings:normal;text-indent:0;text-align:start;text-decoration:none;text-decoration-line:none;text-decoration-style:solid;text-decoration-color:#000000;letter-spacing:normal;word-spacing:normal;text-transform:none;writing-mode:lr-tb;direction:ltr;text-orientation:mixed;dominant-baseline:auto;baseline-shift:baseline;text-anchor:start;white-space:normal;shape-padding:0;shape-margin:0;inline-size:0;clip-rule:nonzero;display:inline;overflow:visible;visibility:visible;isolation:auto;mix-blend-mode:normal;color-interpolation:sRGB;color-interpolation-filters:linearRGB;solid-color:#000000;solid-opacity:1;vector-effect:none;fill:#c83737;fill-opacity:1;fill-rule:nonzero;stroke:none;stroke-width:0.105868;stroke-linecap:butt;stroke-linejoin:miter;stroke-miterlimit:4;stroke-dasharray:none;stroke-dashoffset:0;stroke-opacity:1;paint-order:markers fill stroke;color-rendering:auto;image-rendering:auto;shape-rendering:auto;text-rendering:auto;enable-background:accumulate;stop-color:#000000;stop-opacity:1"
         d="m -12.787096,97.356536 c -0.287815,-0.28781 -0.707702,-0.44326 -1.192438,-0.39961 -0.96947,0.0873 -1.820503,0.93834 -1.907816,1.90782 l -0.04908,0.54493 c -0.315256,3.500374 -0.315256,3.500374 -0.315256,3.500374 0,0 0,0 3.500378,-0.31525 l 0.52241,-0.047 c 0.969471,-0.0873 1.81989,-0.93774 1.907204,-1.90721 0.08731,-0.969474 -0.623089,-1.679874 -1.59256,-1.592564 l -0.522411,0.047 0.0497,-0.54554 c 0.04366,-0.48474 -0.112307,-0.90514 -0.400123,-1.19295 z" />
      <path
         id="path1981-7-5-1"
         style="color:#000000;font-style:normal;font-variant:normal;font-weight:normal;font-stretch:normal;font-size:medium;line-height:normal;font-family:sans-serif;font-variant-ligatures:normal;font-variant-position:normal;font-variant-caps:normal;font-variant-numeric:normal;font-variant-alternates:normal;font-variant-east-asian:normal;font-feature-settings:normal;font-variation-settings:normal;text-indent:0;text-align:start;text-decoration:none;text-decoration-line:none;text-decoration-style:solid;text-decoration-color:#000000;letter-spacing:normal;word-spacing:normal;text-transform:none;writing-mode:lr-tb;direction:ltr;text-orientation:mixed;dominant-baseline:auto;baseline-shift:baseline;text-anchor:start;white-space:normal;shape-padding:0;shape-margin:0;inline-size:0;clip-rule:nonzero;display:inline;overflow:visible;visibility:visible;isolation:auto;mix-blend-mode:normal;color-interpolation:sRGB;color-interpolation-filters:linearRGB;solid-color:#000000;solid-opacity:1;vector-effect:none;fill:#c83737;fill-opacity:1;fill-rule:nonzero;stroke:none;stroke-width:0.14818;stroke-linecap:butt;stroke-linejoin:miter;stroke-miterlimit:4;stroke-dasharray:none;stroke-dashoffset:0;stroke-opacity:1;paint-order:markers fill stroke;color-rendering:auto;image-rendering:auto;shape-rendering:auto;text-rendering:auto;enable-background:accumulate;stop-color:#000000;stop-opacity:1"
         d="m 4.4058951,115.05461 c -0.4220307,-0.42203 -1.0204963,-0.66719 -1.6968573,-0.63761 -1.3527192,0.0592 -2.48973482,1.19619 -2.54892161,2.54893 l -0.0332717,0.76035 c -0.21370721,4.88412 -0.21370721,4.88412 -0.21370721,4.88412 0,0 0,0 4.88413942,-0.21369 l 0.728931,-0.0318 c 1.3527205,-0.0592 2.4889142,-1.19539 2.5481038,-2.54811 0.059189,-1.35272 -0.9824957,-2.3944 -2.3352151,-2.33522 l -0.7289324,0.0318 0.034101,-0.76117 c 0.029598,-0.67636 -0.2163263,-1.27558 -0.6383583,-1.6976 z" />
      <path
         id="path1981-7-5-9"
         style="color:#000000;font-style:normal;font-variant:normal;font-weight:normal;font-stretch:normal;font-size:medium;line-height:normal;font-family:sans-serif;font-variant-ligatures:normal;font-variant-position:normal;font-variant-caps:normal;font-variant-numeric:normal;font-variant-alternates:normal;font-variant-east-asian:normal;font-feature-settings:normal;font-variation-settings:normal;text-indent:0;text-align:start;text-decoration:none;text-decoration-line:none;text-decoration-style:solid;text-decoration-color:#000000;letter-spacing:normal;word-spacing:normal;text-transform:none;writing-mode:lr-tb;direction:ltr;text-orientation:mixed;dominant-baseline:auto;baseline-shift:baseline;text-anchor:start;white-space:normal;shape-padding:0;shape-margin:0;inline-size:0;clip-rule:nonzero;display:inline;overflow:visible;visibility:visible;isolation:auto;mix-blend-mode:normal;color-interpolation:sRGB;color-interpolation-filters:linearRGB;solid-color:#000000;solid-opacity:1;vector-effect:none;fill:#c83737;fill-opacity:1;fill-rule:nonzero;stroke:none;stroke-width:0.105868;stroke-linecap:butt;stroke-linejoin:miter;stroke-miterlimit:4;stroke-dasharray:none;stroke-dashoffset:0;stroke-opacity:1;paint-order:markers fill stroke;color-rendering:auto;image-rendering:auto;shape-rendering:auto;text-rendering:auto;enable-background:accumulate;stop-color:#000000;stop-opacity:1"
         d="m -32.232532,52.152205 c -0.287815,-0.28781 -0.707702,-0.44326 -1.192438,-0.39961 -0.96947,0.0873 -1.820503,0.93834 -1.907816,1.90782 l -0.04908,0.54493 c -0.315256,3.50037 -0.315256,3.50037 -0.315256,3.50037 0,0 0,0 3.500378,-0.31525 l 0.52241,-0.047 c 0.969471,-0.0873 1.81989,-0.93774 1.907205,-1.90721 0.08731,-0.96947 -0.62309,-1.67987 -1.592561,-1.59256 l -0.522411,0.047 0.0497,-0.54554 c 0.04366,-0.48474 -0.112307,-0.90514 -0.400123,-1.19295 z" />
    </g>
  </g>
</svg>
